%TF.GenerationSoftware,KiCad,Pcbnew,7.0.2*%
%TF.CreationDate,2023-05-03T01:09:28+02:00*%
%TF.ProjectId,PCB GUIDANCE,50434220-4755-4494-9441-4e43452e6b69,rev?*%
%TF.SameCoordinates,Original*%
%TF.FileFunction,Soldermask,Top*%
%TF.FilePolarity,Negative*%
%FSLAX45Y45*%
G04 Gerber Fmt 4.5, Leading zero omitted, Abs format (unit mm)*
G04 Created by KiCad (PCBNEW 7.0.2) date 2023-05-03 01:09:28*
%MOMM*%
%LPD*%
G01*
G04 APERTURE LIST*
G04 Aperture macros list*
%AMRoundRect*
0 Rectangle with rounded corners*
0 $1 Rounding radius*
0 $2 $3 $4 $5 $6 $7 $8 $9 X,Y pos of 4 corners*
0 Add a 4 corners polygon primitive as box body*
4,1,4,$2,$3,$4,$5,$6,$7,$8,$9,$2,$3,0*
0 Add four circle primitives for the rounded corners*
1,1,$1+$1,$2,$3*
1,1,$1+$1,$4,$5*
1,1,$1+$1,$6,$7*
1,1,$1+$1,$8,$9*
0 Add four rect primitives between the rounded corners*
20,1,$1+$1,$2,$3,$4,$5,0*
20,1,$1+$1,$4,$5,$6,$7,0*
20,1,$1+$1,$6,$7,$8,$9,0*
20,1,$1+$1,$8,$9,$2,$3,0*%
G04 Aperture macros list end*
%ADD10RoundRect,0.225000X0.225000X0.375000X-0.225000X0.375000X-0.225000X-0.375000X0.225000X-0.375000X0*%
%ADD11R,1.800000X1.100000*%
%ADD12C,1.750000*%
%ADD13C,3.987800*%
%ADD14RoundRect,0.250000X0.450000X-0.262500X0.450000X0.262500X-0.450000X0.262500X-0.450000X-0.262500X0*%
%ADD15RoundRect,0.225000X-0.225000X-0.375000X0.225000X-0.375000X0.225000X0.375000X-0.225000X0.375000X0*%
%ADD16RoundRect,0.250000X0.625000X-0.375000X0.625000X0.375000X-0.625000X0.375000X-0.625000X-0.375000X0*%
%ADD17R,0.500000X2.250000*%
%ADD18O,1.700000X2.700000*%
%ADD19RoundRect,0.250000X-0.475000X0.250000X-0.475000X-0.250000X0.475000X-0.250000X0.475000X0.250000X0*%
%ADD20RoundRect,0.250000X-0.250000X-0.475000X0.250000X-0.475000X0.250000X0.475000X-0.250000X0.475000X0*%
%ADD21R,1.500000X0.550000*%
%ADD22R,0.550000X1.500000*%
%ADD23R,1.400000X1.200000*%
%ADD24RoundRect,0.250000X0.475000X-0.250000X0.475000X0.250000X-0.475000X0.250000X-0.475000X-0.250000X0*%
G04 APERTURE END LIST*
D10*
%TO.C,D1*%
X9562900Y-10353675D03*
X9232900Y-10353675D03*
%TD*%
D11*
%TO.C,SW1*%
X8332350Y-13772300D03*
X8952350Y-14142300D03*
X8332350Y-14142300D03*
X8952350Y-13772300D03*
%TD*%
D12*
%TO.C,MX4*%
X19145250Y-8893175D03*
D13*
X19653250Y-8893175D03*
D12*
X20161250Y-8893175D03*
%TD*%
D14*
%TO.C,R4*%
X5441950Y-10101200D03*
X5441950Y-9918700D03*
%TD*%
D15*
%TO.C,D5*%
X21450400Y-10274300D03*
X21780400Y-10274300D03*
%TD*%
D16*
%TO.C,F1*%
X8299450Y-12789200D03*
X8299450Y-12509200D03*
%TD*%
D12*
%TO.C,MX2*%
X10868025Y-8918675D03*
D13*
X11376025Y-8918675D03*
D12*
X11884025Y-8918675D03*
%TD*%
D17*
%TO.C,USB1*%
X5707400Y-6952400D03*
X5787400Y-6952400D03*
X5867400Y-6952400D03*
X5947400Y-6952400D03*
X6027400Y-6952400D03*
D18*
X6232400Y-6502400D03*
X5502400Y-6502400D03*
X6232400Y-6952400D03*
X5502400Y-6952400D03*
%TD*%
D12*
%TO.C,MX3*%
X12788900Y-8921750D03*
D13*
X13296900Y-8921750D03*
D12*
X13804900Y-8921750D03*
%TD*%
%TO.C,MX5*%
X21075650Y-8893175D03*
D13*
X21583650Y-8893175D03*
D12*
X22091650Y-8893175D03*
%TD*%
D19*
%TO.C,C5*%
X8197850Y-10388600D03*
X8197850Y-10578600D03*
%TD*%
D14*
%TO.C,R2*%
X5473700Y-7469950D03*
X5473700Y-7287450D03*
%TD*%
D20*
%TO.C,C3*%
X5620250Y-10731500D03*
X5810250Y-10731500D03*
%TD*%
D10*
%TO.C,D4*%
X19796025Y-10274300D03*
X19466025Y-10274300D03*
%TD*%
D21*
%TO.C,U1*%
X7396250Y-11207700D03*
X7396250Y-11127700D03*
X7396250Y-11047700D03*
X7396250Y-10967700D03*
X7396250Y-10887700D03*
X7396250Y-10807700D03*
X7396250Y-10727700D03*
X7396250Y-10647700D03*
X7396250Y-10567700D03*
X7396250Y-10487700D03*
X7396250Y-10407700D03*
D22*
X7226250Y-10237700D03*
X7146250Y-10237700D03*
X7066250Y-10237700D03*
X6986250Y-10237700D03*
X6906250Y-10237700D03*
X6826250Y-10237700D03*
X6746250Y-10237700D03*
X6666250Y-10237700D03*
X6586250Y-10237700D03*
X6506250Y-10237700D03*
X6426250Y-10237700D03*
D21*
X6256250Y-10407700D03*
X6256250Y-10487700D03*
X6256250Y-10567700D03*
X6256250Y-10647700D03*
X6256250Y-10727700D03*
X6256250Y-10807700D03*
X6256250Y-10887700D03*
X6256250Y-10967700D03*
X6256250Y-11047700D03*
X6256250Y-11127700D03*
X6256250Y-11207700D03*
D22*
X6426250Y-11377700D03*
X6506250Y-11377700D03*
X6586250Y-11377700D03*
X6666250Y-11377700D03*
X6746250Y-11377700D03*
X6826250Y-11377700D03*
X6906250Y-11377700D03*
X6986250Y-11377700D03*
X7066250Y-11377700D03*
X7146250Y-11377700D03*
X7226250Y-11377700D03*
%TD*%
D23*
%TO.C,Y1*%
X6758650Y-9575800D03*
X6978650Y-9575800D03*
X6978650Y-9405800D03*
X6758650Y-9405800D03*
%TD*%
D12*
%TO.C,MX7*%
X13836650Y-12893675D03*
D13*
X14344650Y-12893675D03*
D12*
X14852650Y-12893675D03*
%TD*%
D10*
%TO.C,D2*%
X11455400Y-10353675D03*
X11125400Y-10353675D03*
%TD*%
D14*
%TO.C,R3*%
X5975475Y-7484325D03*
X5975475Y-7301825D03*
%TD*%
D20*
%TO.C,C6*%
X7245850Y-11988800D03*
X7435850Y-11988800D03*
%TD*%
D15*
%TO.C,D7*%
X12633525Y-12338050D03*
X12963525Y-12338050D03*
%TD*%
D10*
%TO.C,D3*%
X13446025Y-10353675D03*
X13116025Y-10353675D03*
%TD*%
D15*
%TO.C,D8*%
X19856650Y-12338050D03*
X20186650Y-12338050D03*
%TD*%
D24*
%TO.C,C2*%
X6267450Y-9594600D03*
X6267450Y-9404600D03*
%TD*%
D19*
%TO.C,C1*%
X7537450Y-9391900D03*
X7537450Y-9581900D03*
%TD*%
D14*
%TO.C,R1*%
X8175625Y-11216450D03*
X8175625Y-11033950D03*
%TD*%
D15*
%TO.C,D6*%
X23355400Y-10289125D03*
X23685400Y-10289125D03*
%TD*%
D12*
%TO.C,MX1*%
X8963025Y-8918675D03*
D13*
X9471025Y-8918675D03*
D12*
X9979025Y-8918675D03*
%TD*%
D19*
%TO.C,C4*%
X5899150Y-9919200D03*
X5899150Y-10109200D03*
%TD*%
D12*
%TO.C,MX8*%
X17864900Y-12896800D03*
D13*
X18372900Y-12896800D03*
D12*
X18880900Y-12896800D03*
%TD*%
%TO.C,MX6*%
X22993350Y-8893175D03*
D13*
X23501350Y-8893175D03*
D12*
X24009350Y-8893175D03*
%TD*%
M02*
