%TF.GenerationSoftware,KiCad,Pcbnew,7.0.2*%
%TF.CreationDate,2023-05-03T01:09:28+02:00*%
%TF.ProjectId,PCB GUIDANCE,50434220-4755-4494-9441-4e43452e6b69,rev?*%
%TF.SameCoordinates,Original*%
%TF.FileFunction,Legend,Top*%
%TF.FilePolarity,Positive*%
%FSLAX45Y45*%
G04 Gerber Fmt 4.5, Leading zero omitted, Abs format (unit mm)*
G04 Created by KiCad (PCBNEW 7.0.2) date 2023-05-03 01:09:28*
%MOMM*%
%LPD*%
G01*
G04 APERTURE LIST*
G04 Aperture macros list*
%AMRoundRect*
0 Rectangle with rounded corners*
0 $1 Rounding radius*
0 $2 $3 $4 $5 $6 $7 $8 $9 X,Y pos of 4 corners*
0 Add a 4 corners polygon primitive as box body*
4,1,4,$2,$3,$4,$5,$6,$7,$8,$9,$2,$3,0*
0 Add four circle primitives for the rounded corners*
1,1,$1+$1,$2,$3*
1,1,$1+$1,$4,$5*
1,1,$1+$1,$6,$7*
1,1,$1+$1,$8,$9*
0 Add four rect primitives between the rounded corners*
20,1,$1+$1,$2,$3,$4,$5,0*
20,1,$1+$1,$4,$5,$6,$7,0*
20,1,$1+$1,$6,$7,$8,$9,0*
20,1,$1+$1,$8,$9,$2,$3,0*%
G04 Aperture macros list end*
%ADD10C,0.150000*%
%ADD11C,0.120000*%
%ADD12RoundRect,0.225000X0.225000X0.375000X-0.225000X0.375000X-0.225000X-0.375000X0.225000X-0.375000X0*%
%ADD13R,1.800000X1.100000*%
%ADD14C,1.750000*%
%ADD15C,3.987800*%
%ADD16RoundRect,0.250000X0.450000X-0.262500X0.450000X0.262500X-0.450000X0.262500X-0.450000X-0.262500X0*%
%ADD17RoundRect,0.225000X-0.225000X-0.375000X0.225000X-0.375000X0.225000X0.375000X-0.225000X0.375000X0*%
%ADD18RoundRect,0.250000X0.625000X-0.375000X0.625000X0.375000X-0.625000X0.375000X-0.625000X-0.375000X0*%
%ADD19R,0.500000X2.250000*%
%ADD20O,1.700000X2.700000*%
%ADD21RoundRect,0.250000X-0.475000X0.250000X-0.475000X-0.250000X0.475000X-0.250000X0.475000X0.250000X0*%
%ADD22RoundRect,0.250000X-0.250000X-0.475000X0.250000X-0.475000X0.250000X0.475000X-0.250000X0.475000X0*%
%ADD23R,1.500000X0.550000*%
%ADD24R,0.550000X1.500000*%
%ADD25R,1.400000X1.200000*%
%ADD26RoundRect,0.250000X0.475000X-0.250000X0.475000X0.250000X-0.475000X0.250000X-0.475000X-0.250000X0*%
G04 APERTURE END LIST*
D10*
%TO.C,D1*%
X9324091Y-10599937D02*
X9324091Y-10499937D01*
X9324091Y-10499937D02*
X9347900Y-10499937D01*
X9347900Y-10499937D02*
X9362186Y-10504699D01*
X9362186Y-10504699D02*
X9371710Y-10514223D01*
X9371710Y-10514223D02*
X9376471Y-10523746D01*
X9376471Y-10523746D02*
X9381233Y-10542794D01*
X9381233Y-10542794D02*
X9381233Y-10557080D01*
X9381233Y-10557080D02*
X9376471Y-10576127D01*
X9376471Y-10576127D02*
X9371710Y-10585651D01*
X9371710Y-10585651D02*
X9362186Y-10595175D01*
X9362186Y-10595175D02*
X9347900Y-10599937D01*
X9347900Y-10599937D02*
X9324091Y-10599937D01*
X9476471Y-10599937D02*
X9419329Y-10599937D01*
X9447900Y-10599937D02*
X9447900Y-10499937D01*
X9447900Y-10499937D02*
X9438376Y-10514223D01*
X9438376Y-10514223D02*
X9428852Y-10523746D01*
X9428852Y-10523746D02*
X9419329Y-10528508D01*
%TO.C,SW1*%
X8509017Y-13592400D02*
X8523302Y-13597162D01*
X8523302Y-13597162D02*
X8547112Y-13597162D01*
X8547112Y-13597162D02*
X8556636Y-13592400D01*
X8556636Y-13592400D02*
X8561398Y-13587638D01*
X8561398Y-13587638D02*
X8566160Y-13578114D01*
X8566160Y-13578114D02*
X8566160Y-13568590D01*
X8566160Y-13568590D02*
X8561398Y-13559067D01*
X8561398Y-13559067D02*
X8556636Y-13554305D01*
X8556636Y-13554305D02*
X8547112Y-13549543D01*
X8547112Y-13549543D02*
X8528064Y-13544781D01*
X8528064Y-13544781D02*
X8518541Y-13540019D01*
X8518541Y-13540019D02*
X8513779Y-13535257D01*
X8513779Y-13535257D02*
X8509017Y-13525733D01*
X8509017Y-13525733D02*
X8509017Y-13516209D01*
X8509017Y-13516209D02*
X8513779Y-13506686D01*
X8513779Y-13506686D02*
X8518541Y-13501924D01*
X8518541Y-13501924D02*
X8528064Y-13497162D01*
X8528064Y-13497162D02*
X8551874Y-13497162D01*
X8551874Y-13497162D02*
X8566160Y-13501924D01*
X8599493Y-13497162D02*
X8623302Y-13597162D01*
X8623302Y-13597162D02*
X8642350Y-13525733D01*
X8642350Y-13525733D02*
X8661398Y-13597162D01*
X8661398Y-13597162D02*
X8685207Y-13497162D01*
X8775683Y-13597162D02*
X8718541Y-13597162D01*
X8747112Y-13597162D02*
X8747112Y-13497162D01*
X8747112Y-13497162D02*
X8737588Y-13511448D01*
X8737588Y-13511448D02*
X8728064Y-13520971D01*
X8728064Y-13520971D02*
X8718541Y-13525733D01*
%TO.C,R4*%
X5323212Y-10026617D02*
X5275593Y-10059950D01*
X5323212Y-10083759D02*
X5223212Y-10083759D01*
X5223212Y-10083759D02*
X5223212Y-10045664D01*
X5223212Y-10045664D02*
X5227974Y-10036140D01*
X5227974Y-10036140D02*
X5232736Y-10031379D01*
X5232736Y-10031379D02*
X5242260Y-10026617D01*
X5242260Y-10026617D02*
X5256545Y-10026617D01*
X5256545Y-10026617D02*
X5266069Y-10031379D01*
X5266069Y-10031379D02*
X5270831Y-10036140D01*
X5270831Y-10036140D02*
X5275593Y-10045664D01*
X5275593Y-10045664D02*
X5275593Y-10083759D01*
X5256545Y-9940902D02*
X5323212Y-9940902D01*
X5218450Y-9964712D02*
X5289879Y-9988521D01*
X5289879Y-9988521D02*
X5289879Y-9926617D01*
%TO.C,D5*%
X21541591Y-10120562D02*
X21541591Y-10020562D01*
X21541591Y-10020562D02*
X21565400Y-10020562D01*
X21565400Y-10020562D02*
X21579686Y-10025324D01*
X21579686Y-10025324D02*
X21589210Y-10034848D01*
X21589210Y-10034848D02*
X21593971Y-10044371D01*
X21593971Y-10044371D02*
X21598733Y-10063419D01*
X21598733Y-10063419D02*
X21598733Y-10077705D01*
X21598733Y-10077705D02*
X21593971Y-10096752D01*
X21593971Y-10096752D02*
X21589210Y-10106276D01*
X21589210Y-10106276D02*
X21579686Y-10115800D01*
X21579686Y-10115800D02*
X21565400Y-10120562D01*
X21565400Y-10120562D02*
X21541591Y-10120562D01*
X21689210Y-10020562D02*
X21641591Y-10020562D01*
X21641591Y-10020562D02*
X21636829Y-10068181D01*
X21636829Y-10068181D02*
X21641591Y-10063419D01*
X21641591Y-10063419D02*
X21651114Y-10058657D01*
X21651114Y-10058657D02*
X21674924Y-10058657D01*
X21674924Y-10058657D02*
X21684448Y-10063419D01*
X21684448Y-10063419D02*
X21689210Y-10068181D01*
X21689210Y-10068181D02*
X21693971Y-10077705D01*
X21693971Y-10077705D02*
X21693971Y-10101514D01*
X21693971Y-10101514D02*
X21689210Y-10111038D01*
X21689210Y-10111038D02*
X21684448Y-10115800D01*
X21684448Y-10115800D02*
X21674924Y-10120562D01*
X21674924Y-10120562D02*
X21651114Y-10120562D01*
X21651114Y-10120562D02*
X21641591Y-10115800D01*
X21641591Y-10115800D02*
X21636829Y-10111038D01*
%TO.C,F1*%
X8111331Y-12682533D02*
X8111331Y-12715867D01*
X8163712Y-12715867D02*
X8063712Y-12715867D01*
X8063712Y-12715867D02*
X8063712Y-12668248D01*
X8163712Y-12577771D02*
X8163712Y-12634914D01*
X8163712Y-12606343D02*
X8063712Y-12606343D01*
X8063712Y-12606343D02*
X8077998Y-12615867D01*
X8077998Y-12615867D02*
X8087521Y-12625390D01*
X8087521Y-12625390D02*
X8092283Y-12634914D01*
%TO.C,USB1*%
X5693590Y-6651862D02*
X5693590Y-6732814D01*
X5693590Y-6732814D02*
X5698352Y-6742338D01*
X5698352Y-6742338D02*
X5703114Y-6747100D01*
X5703114Y-6747100D02*
X5712638Y-6751862D01*
X5712638Y-6751862D02*
X5731686Y-6751862D01*
X5731686Y-6751862D02*
X5741209Y-6747100D01*
X5741209Y-6747100D02*
X5745971Y-6742338D01*
X5745971Y-6742338D02*
X5750733Y-6732814D01*
X5750733Y-6732814D02*
X5750733Y-6651862D01*
X5793590Y-6747100D02*
X5807876Y-6751862D01*
X5807876Y-6751862D02*
X5831686Y-6751862D01*
X5831686Y-6751862D02*
X5841209Y-6747100D01*
X5841209Y-6747100D02*
X5845971Y-6742338D01*
X5845971Y-6742338D02*
X5850733Y-6732814D01*
X5850733Y-6732814D02*
X5850733Y-6723290D01*
X5850733Y-6723290D02*
X5845971Y-6713767D01*
X5845971Y-6713767D02*
X5841209Y-6709005D01*
X5841209Y-6709005D02*
X5831686Y-6704243D01*
X5831686Y-6704243D02*
X5812638Y-6699481D01*
X5812638Y-6699481D02*
X5803114Y-6694719D01*
X5803114Y-6694719D02*
X5798352Y-6689957D01*
X5798352Y-6689957D02*
X5793590Y-6680433D01*
X5793590Y-6680433D02*
X5793590Y-6670909D01*
X5793590Y-6670909D02*
X5798352Y-6661386D01*
X5798352Y-6661386D02*
X5803114Y-6656624D01*
X5803114Y-6656624D02*
X5812638Y-6651862D01*
X5812638Y-6651862D02*
X5836448Y-6651862D01*
X5836448Y-6651862D02*
X5850733Y-6656624D01*
X5926924Y-6699481D02*
X5941209Y-6704243D01*
X5941209Y-6704243D02*
X5945971Y-6709005D01*
X5945971Y-6709005D02*
X5950733Y-6718528D01*
X5950733Y-6718528D02*
X5950733Y-6732814D01*
X5950733Y-6732814D02*
X5945971Y-6742338D01*
X5945971Y-6742338D02*
X5941209Y-6747100D01*
X5941209Y-6747100D02*
X5931686Y-6751862D01*
X5931686Y-6751862D02*
X5893590Y-6751862D01*
X5893590Y-6751862D02*
X5893590Y-6651862D01*
X5893590Y-6651862D02*
X5926924Y-6651862D01*
X5926924Y-6651862D02*
X5936448Y-6656624D01*
X5936448Y-6656624D02*
X5941209Y-6661386D01*
X5941209Y-6661386D02*
X5945971Y-6670909D01*
X5945971Y-6670909D02*
X5945971Y-6680433D01*
X5945971Y-6680433D02*
X5941209Y-6689957D01*
X5941209Y-6689957D02*
X5936448Y-6694719D01*
X5936448Y-6694719D02*
X5926924Y-6699481D01*
X5926924Y-6699481D02*
X5893590Y-6699481D01*
X6045971Y-6751862D02*
X5988829Y-6751862D01*
X6017400Y-6751862D02*
X6017400Y-6651862D01*
X6017400Y-6651862D02*
X6007876Y-6666148D01*
X6007876Y-6666148D02*
X5998352Y-6675671D01*
X5998352Y-6675671D02*
X5988829Y-6680433D01*
%TO.C,C5*%
X8402588Y-10500267D02*
X8407350Y-10505029D01*
X8407350Y-10505029D02*
X8412112Y-10519314D01*
X8412112Y-10519314D02*
X8412112Y-10528838D01*
X8412112Y-10528838D02*
X8407350Y-10543124D01*
X8407350Y-10543124D02*
X8397826Y-10552648D01*
X8397826Y-10552648D02*
X8388302Y-10557409D01*
X8388302Y-10557409D02*
X8369255Y-10562171D01*
X8369255Y-10562171D02*
X8354969Y-10562171D01*
X8354969Y-10562171D02*
X8335921Y-10557409D01*
X8335921Y-10557409D02*
X8326398Y-10552648D01*
X8326398Y-10552648D02*
X8316874Y-10543124D01*
X8316874Y-10543124D02*
X8312112Y-10528838D01*
X8312112Y-10528838D02*
X8312112Y-10519314D01*
X8312112Y-10519314D02*
X8316874Y-10505029D01*
X8316874Y-10505029D02*
X8321636Y-10500267D01*
X8312112Y-10409790D02*
X8312112Y-10457409D01*
X8312112Y-10457409D02*
X8359731Y-10462171D01*
X8359731Y-10462171D02*
X8354969Y-10457409D01*
X8354969Y-10457409D02*
X8350207Y-10447886D01*
X8350207Y-10447886D02*
X8350207Y-10424076D01*
X8350207Y-10424076D02*
X8354969Y-10414552D01*
X8354969Y-10414552D02*
X8359731Y-10409790D01*
X8359731Y-10409790D02*
X8369255Y-10405029D01*
X8369255Y-10405029D02*
X8393064Y-10405029D01*
X8393064Y-10405029D02*
X8402588Y-10409790D01*
X8402588Y-10409790D02*
X8407350Y-10414552D01*
X8407350Y-10414552D02*
X8412112Y-10424076D01*
X8412112Y-10424076D02*
X8412112Y-10447886D01*
X8412112Y-10447886D02*
X8407350Y-10457409D01*
X8407350Y-10457409D02*
X8402588Y-10462171D01*
%TO.C,R2*%
X5354962Y-7395367D02*
X5307343Y-7428700D01*
X5354962Y-7452509D02*
X5254962Y-7452509D01*
X5254962Y-7452509D02*
X5254962Y-7414414D01*
X5254962Y-7414414D02*
X5259724Y-7404890D01*
X5259724Y-7404890D02*
X5264486Y-7400128D01*
X5264486Y-7400128D02*
X5274010Y-7395367D01*
X5274010Y-7395367D02*
X5288295Y-7395367D01*
X5288295Y-7395367D02*
X5297819Y-7400128D01*
X5297819Y-7400128D02*
X5302581Y-7404890D01*
X5302581Y-7404890D02*
X5307343Y-7414414D01*
X5307343Y-7414414D02*
X5307343Y-7452509D01*
X5264486Y-7357271D02*
X5259724Y-7352509D01*
X5259724Y-7352509D02*
X5254962Y-7342986D01*
X5254962Y-7342986D02*
X5254962Y-7319176D01*
X5254962Y-7319176D02*
X5259724Y-7309652D01*
X5259724Y-7309652D02*
X5264486Y-7304890D01*
X5264486Y-7304890D02*
X5274010Y-7300128D01*
X5274010Y-7300128D02*
X5283533Y-7300128D01*
X5283533Y-7300128D02*
X5297819Y-7304890D01*
X5297819Y-7304890D02*
X5354962Y-7362033D01*
X5354962Y-7362033D02*
X5354962Y-7300128D01*
%TO.C,C3*%
X5698583Y-10600238D02*
X5693821Y-10605000D01*
X5693821Y-10605000D02*
X5679536Y-10609762D01*
X5679536Y-10609762D02*
X5670012Y-10609762D01*
X5670012Y-10609762D02*
X5655726Y-10605000D01*
X5655726Y-10605000D02*
X5646202Y-10595476D01*
X5646202Y-10595476D02*
X5641440Y-10585952D01*
X5641440Y-10585952D02*
X5636679Y-10566905D01*
X5636679Y-10566905D02*
X5636679Y-10552619D01*
X5636679Y-10552619D02*
X5641440Y-10533571D01*
X5641440Y-10533571D02*
X5646202Y-10524048D01*
X5646202Y-10524048D02*
X5655726Y-10514524D01*
X5655726Y-10514524D02*
X5670012Y-10509762D01*
X5670012Y-10509762D02*
X5679536Y-10509762D01*
X5679536Y-10509762D02*
X5693821Y-10514524D01*
X5693821Y-10514524D02*
X5698583Y-10519286D01*
X5731917Y-10509762D02*
X5793821Y-10509762D01*
X5793821Y-10509762D02*
X5760488Y-10547857D01*
X5760488Y-10547857D02*
X5774774Y-10547857D01*
X5774774Y-10547857D02*
X5784298Y-10552619D01*
X5784298Y-10552619D02*
X5789059Y-10557381D01*
X5789059Y-10557381D02*
X5793821Y-10566905D01*
X5793821Y-10566905D02*
X5793821Y-10590714D01*
X5793821Y-10590714D02*
X5789059Y-10600238D01*
X5789059Y-10600238D02*
X5784298Y-10605000D01*
X5784298Y-10605000D02*
X5774774Y-10609762D01*
X5774774Y-10609762D02*
X5746202Y-10609762D01*
X5746202Y-10609762D02*
X5736679Y-10605000D01*
X5736679Y-10605000D02*
X5731917Y-10600238D01*
%TO.C,D4*%
X19557216Y-10520562D02*
X19557216Y-10420562D01*
X19557216Y-10420562D02*
X19581025Y-10420562D01*
X19581025Y-10420562D02*
X19595311Y-10425324D01*
X19595311Y-10425324D02*
X19604835Y-10434848D01*
X19604835Y-10434848D02*
X19609596Y-10444371D01*
X19609596Y-10444371D02*
X19614358Y-10463419D01*
X19614358Y-10463419D02*
X19614358Y-10477705D01*
X19614358Y-10477705D02*
X19609596Y-10496752D01*
X19609596Y-10496752D02*
X19604835Y-10506276D01*
X19604835Y-10506276D02*
X19595311Y-10515800D01*
X19595311Y-10515800D02*
X19581025Y-10520562D01*
X19581025Y-10520562D02*
X19557216Y-10520562D01*
X19700073Y-10453895D02*
X19700073Y-10520562D01*
X19676263Y-10415800D02*
X19652454Y-10487229D01*
X19652454Y-10487229D02*
X19714358Y-10487229D01*
%TO.C,U1*%
X6750059Y-11498962D02*
X6750059Y-11579914D01*
X6750059Y-11579914D02*
X6754821Y-11589438D01*
X6754821Y-11589438D02*
X6759583Y-11594200D01*
X6759583Y-11594200D02*
X6769107Y-11598962D01*
X6769107Y-11598962D02*
X6788155Y-11598962D01*
X6788155Y-11598962D02*
X6797678Y-11594200D01*
X6797678Y-11594200D02*
X6802440Y-11589438D01*
X6802440Y-11589438D02*
X6807202Y-11579914D01*
X6807202Y-11579914D02*
X6807202Y-11498962D01*
X6907202Y-11598962D02*
X6850059Y-11598962D01*
X6878631Y-11598962D02*
X6878631Y-11498962D01*
X6878631Y-11498962D02*
X6869107Y-11513248D01*
X6869107Y-11513248D02*
X6859583Y-11522771D01*
X6859583Y-11522771D02*
X6850059Y-11527533D01*
%TO.C,Y1*%
X6821031Y-9244443D02*
X6821031Y-9292062D01*
X6787698Y-9192062D02*
X6821031Y-9244443D01*
X6821031Y-9244443D02*
X6854364Y-9192062D01*
X6940078Y-9292062D02*
X6882936Y-9292062D01*
X6911507Y-9292062D02*
X6911507Y-9192062D01*
X6911507Y-9192062D02*
X6901983Y-9206348D01*
X6901983Y-9206348D02*
X6892459Y-9215871D01*
X6892459Y-9215871D02*
X6882936Y-9220633D01*
%TO.C,D2*%
X11216590Y-10599937D02*
X11216590Y-10499937D01*
X11216590Y-10499937D02*
X11240400Y-10499937D01*
X11240400Y-10499937D02*
X11254686Y-10504699D01*
X11254686Y-10504699D02*
X11264209Y-10514223D01*
X11264209Y-10514223D02*
X11268971Y-10523746D01*
X11268971Y-10523746D02*
X11273733Y-10542794D01*
X11273733Y-10542794D02*
X11273733Y-10557080D01*
X11273733Y-10557080D02*
X11268971Y-10576127D01*
X11268971Y-10576127D02*
X11264209Y-10585651D01*
X11264209Y-10585651D02*
X11254686Y-10595175D01*
X11254686Y-10595175D02*
X11240400Y-10599937D01*
X11240400Y-10599937D02*
X11216590Y-10599937D01*
X11311829Y-10509461D02*
X11316590Y-10504699D01*
X11316590Y-10504699D02*
X11326114Y-10499937D01*
X11326114Y-10499937D02*
X11349924Y-10499937D01*
X11349924Y-10499937D02*
X11359448Y-10504699D01*
X11359448Y-10504699D02*
X11364209Y-10509461D01*
X11364209Y-10509461D02*
X11368971Y-10518985D01*
X11368971Y-10518985D02*
X11368971Y-10528508D01*
X11368971Y-10528508D02*
X11364209Y-10542794D01*
X11364209Y-10542794D02*
X11307067Y-10599937D01*
X11307067Y-10599937D02*
X11368971Y-10599937D01*
%TO.C,R3*%
X5856737Y-7409742D02*
X5809118Y-7443075D01*
X5856737Y-7466884D02*
X5756737Y-7466884D01*
X5756737Y-7466884D02*
X5756737Y-7428789D01*
X5756737Y-7428789D02*
X5761499Y-7419265D01*
X5761499Y-7419265D02*
X5766261Y-7414503D01*
X5766261Y-7414503D02*
X5775784Y-7409742D01*
X5775784Y-7409742D02*
X5790070Y-7409742D01*
X5790070Y-7409742D02*
X5799594Y-7414503D01*
X5799594Y-7414503D02*
X5804356Y-7419265D01*
X5804356Y-7419265D02*
X5809118Y-7428789D01*
X5809118Y-7428789D02*
X5809118Y-7466884D01*
X5756737Y-7376408D02*
X5756737Y-7314503D01*
X5756737Y-7314503D02*
X5794832Y-7347837D01*
X5794832Y-7347837D02*
X5794832Y-7333551D01*
X5794832Y-7333551D02*
X5799594Y-7324027D01*
X5799594Y-7324027D02*
X5804356Y-7319265D01*
X5804356Y-7319265D02*
X5813880Y-7314503D01*
X5813880Y-7314503D02*
X5837689Y-7314503D01*
X5837689Y-7314503D02*
X5847213Y-7319265D01*
X5847213Y-7319265D02*
X5851975Y-7324027D01*
X5851975Y-7324027D02*
X5856737Y-7333551D01*
X5856737Y-7333551D02*
X5856737Y-7362122D01*
X5856737Y-7362122D02*
X5851975Y-7371646D01*
X5851975Y-7371646D02*
X5847213Y-7376408D01*
%TO.C,C6*%
X7324183Y-11857538D02*
X7319421Y-11862300D01*
X7319421Y-11862300D02*
X7305136Y-11867062D01*
X7305136Y-11867062D02*
X7295612Y-11867062D01*
X7295612Y-11867062D02*
X7281326Y-11862300D01*
X7281326Y-11862300D02*
X7271802Y-11852776D01*
X7271802Y-11852776D02*
X7267040Y-11843252D01*
X7267040Y-11843252D02*
X7262279Y-11824205D01*
X7262279Y-11824205D02*
X7262279Y-11809919D01*
X7262279Y-11809919D02*
X7267040Y-11790871D01*
X7267040Y-11790871D02*
X7271802Y-11781348D01*
X7271802Y-11781348D02*
X7281326Y-11771824D01*
X7281326Y-11771824D02*
X7295612Y-11767062D01*
X7295612Y-11767062D02*
X7305136Y-11767062D01*
X7305136Y-11767062D02*
X7319421Y-11771824D01*
X7319421Y-11771824D02*
X7324183Y-11776586D01*
X7409898Y-11767062D02*
X7390850Y-11767062D01*
X7390850Y-11767062D02*
X7381326Y-11771824D01*
X7381326Y-11771824D02*
X7376564Y-11776586D01*
X7376564Y-11776586D02*
X7367040Y-11790871D01*
X7367040Y-11790871D02*
X7362279Y-11809919D01*
X7362279Y-11809919D02*
X7362279Y-11848014D01*
X7362279Y-11848014D02*
X7367040Y-11857538D01*
X7367040Y-11857538D02*
X7371802Y-11862300D01*
X7371802Y-11862300D02*
X7381326Y-11867062D01*
X7381326Y-11867062D02*
X7400374Y-11867062D01*
X7400374Y-11867062D02*
X7409898Y-11862300D01*
X7409898Y-11862300D02*
X7414659Y-11857538D01*
X7414659Y-11857538D02*
X7419421Y-11848014D01*
X7419421Y-11848014D02*
X7419421Y-11824205D01*
X7419421Y-11824205D02*
X7414659Y-11814681D01*
X7414659Y-11814681D02*
X7409898Y-11809919D01*
X7409898Y-11809919D02*
X7400374Y-11805157D01*
X7400374Y-11805157D02*
X7381326Y-11805157D01*
X7381326Y-11805157D02*
X7371802Y-11809919D01*
X7371802Y-11809919D02*
X7367040Y-11814681D01*
X7367040Y-11814681D02*
X7362279Y-11824205D01*
%TO.C,D7*%
X12724715Y-12184312D02*
X12724715Y-12084312D01*
X12724715Y-12084312D02*
X12748525Y-12084312D01*
X12748525Y-12084312D02*
X12762811Y-12089074D01*
X12762811Y-12089074D02*
X12772334Y-12098598D01*
X12772334Y-12098598D02*
X12777096Y-12108121D01*
X12777096Y-12108121D02*
X12781858Y-12127169D01*
X12781858Y-12127169D02*
X12781858Y-12141455D01*
X12781858Y-12141455D02*
X12777096Y-12160502D01*
X12777096Y-12160502D02*
X12772334Y-12170026D01*
X12772334Y-12170026D02*
X12762811Y-12179550D01*
X12762811Y-12179550D02*
X12748525Y-12184312D01*
X12748525Y-12184312D02*
X12724715Y-12184312D01*
X12815192Y-12084312D02*
X12881858Y-12084312D01*
X12881858Y-12084312D02*
X12839001Y-12184312D01*
%TO.C,D3*%
X13213565Y-10634887D02*
X13213565Y-10534887D01*
X13213565Y-10534887D02*
X13237375Y-10534887D01*
X13237375Y-10534887D02*
X13251661Y-10539649D01*
X13251661Y-10539649D02*
X13261184Y-10549173D01*
X13261184Y-10549173D02*
X13265946Y-10558696D01*
X13265946Y-10558696D02*
X13270708Y-10577744D01*
X13270708Y-10577744D02*
X13270708Y-10592030D01*
X13270708Y-10592030D02*
X13265946Y-10611077D01*
X13265946Y-10611077D02*
X13261184Y-10620601D01*
X13261184Y-10620601D02*
X13251661Y-10630125D01*
X13251661Y-10630125D02*
X13237375Y-10634887D01*
X13237375Y-10634887D02*
X13213565Y-10634887D01*
X13304042Y-10534887D02*
X13365946Y-10534887D01*
X13365946Y-10534887D02*
X13332613Y-10572982D01*
X13332613Y-10572982D02*
X13346899Y-10572982D01*
X13346899Y-10572982D02*
X13356423Y-10577744D01*
X13356423Y-10577744D02*
X13361184Y-10582506D01*
X13361184Y-10582506D02*
X13365946Y-10592030D01*
X13365946Y-10592030D02*
X13365946Y-10615839D01*
X13365946Y-10615839D02*
X13361184Y-10625363D01*
X13361184Y-10625363D02*
X13356423Y-10630125D01*
X13356423Y-10630125D02*
X13346899Y-10634887D01*
X13346899Y-10634887D02*
X13318327Y-10634887D01*
X13318327Y-10634887D02*
X13308804Y-10630125D01*
X13308804Y-10630125D02*
X13304042Y-10625363D01*
%TO.C,D8*%
X19947841Y-12184312D02*
X19947841Y-12084312D01*
X19947841Y-12084312D02*
X19971650Y-12084312D01*
X19971650Y-12084312D02*
X19985936Y-12089074D01*
X19985936Y-12089074D02*
X19995460Y-12098598D01*
X19995460Y-12098598D02*
X20000221Y-12108121D01*
X20000221Y-12108121D02*
X20004983Y-12127169D01*
X20004983Y-12127169D02*
X20004983Y-12141455D01*
X20004983Y-12141455D02*
X20000221Y-12160502D01*
X20000221Y-12160502D02*
X19995460Y-12170026D01*
X19995460Y-12170026D02*
X19985936Y-12179550D01*
X19985936Y-12179550D02*
X19971650Y-12184312D01*
X19971650Y-12184312D02*
X19947841Y-12184312D01*
X20062126Y-12127169D02*
X20052602Y-12122407D01*
X20052602Y-12122407D02*
X20047841Y-12117645D01*
X20047841Y-12117645D02*
X20043079Y-12108121D01*
X20043079Y-12108121D02*
X20043079Y-12103359D01*
X20043079Y-12103359D02*
X20047841Y-12093836D01*
X20047841Y-12093836D02*
X20052602Y-12089074D01*
X20052602Y-12089074D02*
X20062126Y-12084312D01*
X20062126Y-12084312D02*
X20081174Y-12084312D01*
X20081174Y-12084312D02*
X20090698Y-12089074D01*
X20090698Y-12089074D02*
X20095460Y-12093836D01*
X20095460Y-12093836D02*
X20100221Y-12103359D01*
X20100221Y-12103359D02*
X20100221Y-12108121D01*
X20100221Y-12108121D02*
X20095460Y-12117645D01*
X20095460Y-12117645D02*
X20090698Y-12122407D01*
X20090698Y-12122407D02*
X20081174Y-12127169D01*
X20081174Y-12127169D02*
X20062126Y-12127169D01*
X20062126Y-12127169D02*
X20052602Y-12131931D01*
X20052602Y-12131931D02*
X20047841Y-12136693D01*
X20047841Y-12136693D02*
X20043079Y-12146217D01*
X20043079Y-12146217D02*
X20043079Y-12165264D01*
X20043079Y-12165264D02*
X20047841Y-12174788D01*
X20047841Y-12174788D02*
X20052602Y-12179550D01*
X20052602Y-12179550D02*
X20062126Y-12184312D01*
X20062126Y-12184312D02*
X20081174Y-12184312D01*
X20081174Y-12184312D02*
X20090698Y-12179550D01*
X20090698Y-12179550D02*
X20095460Y-12174788D01*
X20095460Y-12174788D02*
X20100221Y-12165264D01*
X20100221Y-12165264D02*
X20100221Y-12146217D01*
X20100221Y-12146217D02*
X20095460Y-12136693D01*
X20095460Y-12136693D02*
X20090698Y-12131931D01*
X20090698Y-12131931D02*
X20081174Y-12127169D01*
%TO.C,C2*%
X6136188Y-9516267D02*
X6140950Y-9521029D01*
X6140950Y-9521029D02*
X6145712Y-9535314D01*
X6145712Y-9535314D02*
X6145712Y-9544838D01*
X6145712Y-9544838D02*
X6140950Y-9559124D01*
X6140950Y-9559124D02*
X6131426Y-9568648D01*
X6131426Y-9568648D02*
X6121902Y-9573409D01*
X6121902Y-9573409D02*
X6102855Y-9578171D01*
X6102855Y-9578171D02*
X6088569Y-9578171D01*
X6088569Y-9578171D02*
X6069521Y-9573409D01*
X6069521Y-9573409D02*
X6059998Y-9568648D01*
X6059998Y-9568648D02*
X6050474Y-9559124D01*
X6050474Y-9559124D02*
X6045712Y-9544838D01*
X6045712Y-9544838D02*
X6045712Y-9535314D01*
X6045712Y-9535314D02*
X6050474Y-9521029D01*
X6050474Y-9521029D02*
X6055236Y-9516267D01*
X6055236Y-9478171D02*
X6050474Y-9473409D01*
X6050474Y-9473409D02*
X6045712Y-9463886D01*
X6045712Y-9463886D02*
X6045712Y-9440076D01*
X6045712Y-9440076D02*
X6050474Y-9430552D01*
X6050474Y-9430552D02*
X6055236Y-9425790D01*
X6055236Y-9425790D02*
X6064759Y-9421029D01*
X6064759Y-9421029D02*
X6074283Y-9421029D01*
X6074283Y-9421029D02*
X6088569Y-9425790D01*
X6088569Y-9425790D02*
X6145712Y-9482933D01*
X6145712Y-9482933D02*
X6145712Y-9421029D01*
%TO.C,C1*%
X7742188Y-9503567D02*
X7746950Y-9508329D01*
X7746950Y-9508329D02*
X7751712Y-9522614D01*
X7751712Y-9522614D02*
X7751712Y-9532138D01*
X7751712Y-9532138D02*
X7746950Y-9546424D01*
X7746950Y-9546424D02*
X7737426Y-9555948D01*
X7737426Y-9555948D02*
X7727902Y-9560709D01*
X7727902Y-9560709D02*
X7708855Y-9565471D01*
X7708855Y-9565471D02*
X7694569Y-9565471D01*
X7694569Y-9565471D02*
X7675521Y-9560709D01*
X7675521Y-9560709D02*
X7665998Y-9555948D01*
X7665998Y-9555948D02*
X7656474Y-9546424D01*
X7656474Y-9546424D02*
X7651712Y-9532138D01*
X7651712Y-9532138D02*
X7651712Y-9522614D01*
X7651712Y-9522614D02*
X7656474Y-9508329D01*
X7656474Y-9508329D02*
X7661236Y-9503567D01*
X7751712Y-9408329D02*
X7751712Y-9465471D01*
X7751712Y-9436900D02*
X7651712Y-9436900D01*
X7651712Y-9436900D02*
X7665998Y-9446424D01*
X7665998Y-9446424D02*
X7675521Y-9455948D01*
X7675521Y-9455948D02*
X7680283Y-9465471D01*
%TO.C,R1*%
X8056887Y-11141867D02*
X8009268Y-11175200D01*
X8056887Y-11199009D02*
X7956887Y-11199009D01*
X7956887Y-11199009D02*
X7956887Y-11160914D01*
X7956887Y-11160914D02*
X7961649Y-11151390D01*
X7961649Y-11151390D02*
X7966411Y-11146629D01*
X7966411Y-11146629D02*
X7975934Y-11141867D01*
X7975934Y-11141867D02*
X7990220Y-11141867D01*
X7990220Y-11141867D02*
X7999744Y-11146629D01*
X7999744Y-11146629D02*
X8004506Y-11151390D01*
X8004506Y-11151390D02*
X8009268Y-11160914D01*
X8009268Y-11160914D02*
X8009268Y-11199009D01*
X8056887Y-11046629D02*
X8056887Y-11103771D01*
X8056887Y-11075200D02*
X7956887Y-11075200D01*
X7956887Y-11075200D02*
X7971173Y-11084724D01*
X7971173Y-11084724D02*
X7980696Y-11094248D01*
X7980696Y-11094248D02*
X7985458Y-11103771D01*
%TO.C,D6*%
X23446590Y-10135387D02*
X23446590Y-10035387D01*
X23446590Y-10035387D02*
X23470400Y-10035387D01*
X23470400Y-10035387D02*
X23484686Y-10040149D01*
X23484686Y-10040149D02*
X23494209Y-10049673D01*
X23494209Y-10049673D02*
X23498971Y-10059196D01*
X23498971Y-10059196D02*
X23503733Y-10078244D01*
X23503733Y-10078244D02*
X23503733Y-10092530D01*
X23503733Y-10092530D02*
X23498971Y-10111577D01*
X23498971Y-10111577D02*
X23494209Y-10121101D01*
X23494209Y-10121101D02*
X23484686Y-10130625D01*
X23484686Y-10130625D02*
X23470400Y-10135387D01*
X23470400Y-10135387D02*
X23446590Y-10135387D01*
X23589448Y-10035387D02*
X23570400Y-10035387D01*
X23570400Y-10035387D02*
X23560876Y-10040149D01*
X23560876Y-10040149D02*
X23556114Y-10044911D01*
X23556114Y-10044911D02*
X23546590Y-10059196D01*
X23546590Y-10059196D02*
X23541829Y-10078244D01*
X23541829Y-10078244D02*
X23541829Y-10116339D01*
X23541829Y-10116339D02*
X23546590Y-10125863D01*
X23546590Y-10125863D02*
X23551352Y-10130625D01*
X23551352Y-10130625D02*
X23560876Y-10135387D01*
X23560876Y-10135387D02*
X23579924Y-10135387D01*
X23579924Y-10135387D02*
X23589448Y-10130625D01*
X23589448Y-10130625D02*
X23594209Y-10125863D01*
X23594209Y-10125863D02*
X23598971Y-10116339D01*
X23598971Y-10116339D02*
X23598971Y-10092530D01*
X23598971Y-10092530D02*
X23594209Y-10083006D01*
X23594209Y-10083006D02*
X23589448Y-10078244D01*
X23589448Y-10078244D02*
X23579924Y-10073482D01*
X23579924Y-10073482D02*
X23560876Y-10073482D01*
X23560876Y-10073482D02*
X23551352Y-10078244D01*
X23551352Y-10078244D02*
X23546590Y-10083006D01*
X23546590Y-10083006D02*
X23541829Y-10092530D01*
%TO.C,C4*%
X6103888Y-10030867D02*
X6108650Y-10035629D01*
X6108650Y-10035629D02*
X6113412Y-10049914D01*
X6113412Y-10049914D02*
X6113412Y-10059438D01*
X6113412Y-10059438D02*
X6108650Y-10073724D01*
X6108650Y-10073724D02*
X6099126Y-10083248D01*
X6099126Y-10083248D02*
X6089602Y-10088009D01*
X6089602Y-10088009D02*
X6070555Y-10092771D01*
X6070555Y-10092771D02*
X6056269Y-10092771D01*
X6056269Y-10092771D02*
X6037221Y-10088009D01*
X6037221Y-10088009D02*
X6027698Y-10083248D01*
X6027698Y-10083248D02*
X6018174Y-10073724D01*
X6018174Y-10073724D02*
X6013412Y-10059438D01*
X6013412Y-10059438D02*
X6013412Y-10049914D01*
X6013412Y-10049914D02*
X6018174Y-10035629D01*
X6018174Y-10035629D02*
X6022936Y-10030867D01*
X6046745Y-9945152D02*
X6113412Y-9945152D01*
X6008650Y-9968962D02*
X6080078Y-9992771D01*
X6080078Y-9992771D02*
X6080078Y-9930867D01*
D11*
%TO.C,D1*%
X9633900Y-10453675D02*
X9633900Y-10253675D01*
X9633900Y-10453675D02*
X9232900Y-10453675D01*
X9633900Y-10253675D02*
X9232900Y-10253675D01*
D10*
%TO.C,SW1*%
X8902350Y-14217300D02*
X8382350Y-14217300D01*
X8902350Y-13697300D02*
X8902350Y-14217300D01*
X8382350Y-14217300D02*
X8382350Y-13697300D01*
X8382350Y-13697300D02*
X8902350Y-13697300D01*
X8742350Y-13957300D02*
G75*
G03*
X8742350Y-13957300I-100000J0D01*
G01*
D11*
%TO.C,R4*%
X5368450Y-10032656D02*
X5368450Y-9987244D01*
X5515450Y-10032656D02*
X5515450Y-9987244D01*
%TO.C,D5*%
X21379400Y-10174300D02*
X21379400Y-10374300D01*
X21379400Y-10174300D02*
X21780400Y-10174300D01*
X21379400Y-10374300D02*
X21780400Y-10374300D01*
%TO.C,F1*%
X8208450Y-12709406D02*
X8208450Y-12588994D01*
X8390450Y-12709406D02*
X8390450Y-12588994D01*
D10*
%TO.C,USB1*%
X6252400Y-6502400D02*
X6252400Y-7047400D01*
X5482400Y-6502400D02*
X5482400Y-7047400D01*
X6252400Y-7047400D02*
X5482400Y-7047400D01*
D11*
%TO.C,C5*%
X8271350Y-10457475D02*
X8271350Y-10509725D01*
X8124350Y-10457475D02*
X8124350Y-10509725D01*
%TO.C,R2*%
X5400200Y-7401406D02*
X5400200Y-7355994D01*
X5547200Y-7401406D02*
X5547200Y-7355994D01*
%TO.C,C3*%
X5689125Y-10658000D02*
X5741375Y-10658000D01*
X5689125Y-10805000D02*
X5741375Y-10805000D01*
%TO.C,D4*%
X19867025Y-10374300D02*
X19867025Y-10174300D01*
X19867025Y-10374300D02*
X19466025Y-10374300D01*
X19867025Y-10174300D02*
X19466025Y-10174300D01*
D10*
%TO.C,U1*%
X7343750Y-11325200D02*
X7343750Y-11267700D01*
X7343750Y-11325200D02*
X7276250Y-11325200D01*
X7343750Y-11267700D02*
X7471250Y-11267700D01*
X7343750Y-10290200D02*
X7343750Y-10357700D01*
X7343750Y-10290200D02*
X7276250Y-10290200D01*
X6308750Y-11325200D02*
X6376250Y-11325200D01*
X6308750Y-11325200D02*
X6308750Y-11257700D01*
X6308750Y-10290200D02*
X6376250Y-10290200D01*
X6308750Y-10290200D02*
X6308750Y-10357700D01*
D11*
%TO.C,Y1*%
X6668650Y-9325800D02*
X6668650Y-9655800D01*
X6668650Y-9655800D02*
X7068650Y-9655800D01*
%TO.C,D2*%
X11526400Y-10453675D02*
X11526400Y-10253675D01*
X11526400Y-10453675D02*
X11125400Y-10453675D01*
X11526400Y-10253675D02*
X11125400Y-10253675D01*
%TO.C,R3*%
X5901975Y-7415781D02*
X5901975Y-7370369D01*
X6048975Y-7415781D02*
X6048975Y-7370369D01*
%TO.C,C6*%
X7314725Y-11915300D02*
X7366975Y-11915300D01*
X7314725Y-12062300D02*
X7366975Y-12062300D01*
%TO.C,D7*%
X12562525Y-12238050D02*
X12562525Y-12438050D01*
X12562525Y-12238050D02*
X12963525Y-12238050D01*
X12562525Y-12438050D02*
X12963525Y-12438050D01*
%TO.C,D3*%
X13517025Y-10453675D02*
X13517025Y-10253675D01*
X13517025Y-10453675D02*
X13116025Y-10453675D01*
X13517025Y-10253675D02*
X13116025Y-10253675D01*
%TO.C,D8*%
X19785650Y-12238050D02*
X19785650Y-12438050D01*
X19785650Y-12238050D02*
X20186650Y-12238050D01*
X19785650Y-12438050D02*
X20186650Y-12438050D01*
%TO.C,C2*%
X6193950Y-9525725D02*
X6193950Y-9473475D01*
X6340950Y-9525725D02*
X6340950Y-9473475D01*
%TO.C,C1*%
X7610950Y-9460775D02*
X7610950Y-9513025D01*
X7463950Y-9460775D02*
X7463950Y-9513025D01*
%TO.C,R1*%
X8102125Y-11147906D02*
X8102125Y-11102494D01*
X8249125Y-11147906D02*
X8249125Y-11102494D01*
%TO.C,D6*%
X23284400Y-10189125D02*
X23284400Y-10389125D01*
X23284400Y-10189125D02*
X23685400Y-10189125D01*
X23284400Y-10389125D02*
X23685400Y-10389125D01*
%TO.C,C4*%
X5972650Y-9988075D02*
X5972650Y-10040325D01*
X5825650Y-9988075D02*
X5825650Y-10040325D01*
%TD*%
%LPC*%
D12*
%TO.C,D1*%
X9562900Y-10353675D03*
X9232900Y-10353675D03*
%TD*%
D13*
%TO.C,SW1*%
X8332350Y-13772300D03*
X8952350Y-14142300D03*
X8332350Y-14142300D03*
X8952350Y-13772300D03*
%TD*%
D14*
%TO.C,MX4*%
X19145250Y-8893175D03*
D15*
X19653250Y-8893175D03*
D14*
X20161250Y-8893175D03*
%TD*%
D16*
%TO.C,R4*%
X5441950Y-10101200D03*
X5441950Y-9918700D03*
%TD*%
D17*
%TO.C,D5*%
X21450400Y-10274300D03*
X21780400Y-10274300D03*
%TD*%
D18*
%TO.C,F1*%
X8299450Y-12789200D03*
X8299450Y-12509200D03*
%TD*%
D14*
%TO.C,MX2*%
X10868025Y-8918675D03*
D15*
X11376025Y-8918675D03*
D14*
X11884025Y-8918675D03*
%TD*%
D19*
%TO.C,USB1*%
X5707400Y-6952400D03*
X5787400Y-6952400D03*
X5867400Y-6952400D03*
X5947400Y-6952400D03*
X6027400Y-6952400D03*
D20*
X6232400Y-6502400D03*
X5502400Y-6502400D03*
X6232400Y-6952400D03*
X5502400Y-6952400D03*
%TD*%
D14*
%TO.C,MX3*%
X12788900Y-8921750D03*
D15*
X13296900Y-8921750D03*
D14*
X13804900Y-8921750D03*
%TD*%
%TO.C,MX5*%
X21075650Y-8893175D03*
D15*
X21583650Y-8893175D03*
D14*
X22091650Y-8893175D03*
%TD*%
D21*
%TO.C,C5*%
X8197850Y-10388600D03*
X8197850Y-10578600D03*
%TD*%
D16*
%TO.C,R2*%
X5473700Y-7469950D03*
X5473700Y-7287450D03*
%TD*%
D22*
%TO.C,C3*%
X5620250Y-10731500D03*
X5810250Y-10731500D03*
%TD*%
D12*
%TO.C,D4*%
X19796025Y-10274300D03*
X19466025Y-10274300D03*
%TD*%
D23*
%TO.C,U1*%
X7396250Y-11207700D03*
X7396250Y-11127700D03*
X7396250Y-11047700D03*
X7396250Y-10967700D03*
X7396250Y-10887700D03*
X7396250Y-10807700D03*
X7396250Y-10727700D03*
X7396250Y-10647700D03*
X7396250Y-10567700D03*
X7396250Y-10487700D03*
X7396250Y-10407700D03*
D24*
X7226250Y-10237700D03*
X7146250Y-10237700D03*
X7066250Y-10237700D03*
X6986250Y-10237700D03*
X6906250Y-10237700D03*
X6826250Y-10237700D03*
X6746250Y-10237700D03*
X6666250Y-10237700D03*
X6586250Y-10237700D03*
X6506250Y-10237700D03*
X6426250Y-10237700D03*
D23*
X6256250Y-10407700D03*
X6256250Y-10487700D03*
X6256250Y-10567700D03*
X6256250Y-10647700D03*
X6256250Y-10727700D03*
X6256250Y-10807700D03*
X6256250Y-10887700D03*
X6256250Y-10967700D03*
X6256250Y-11047700D03*
X6256250Y-11127700D03*
X6256250Y-11207700D03*
D24*
X6426250Y-11377700D03*
X6506250Y-11377700D03*
X6586250Y-11377700D03*
X6666250Y-11377700D03*
X6746250Y-11377700D03*
X6826250Y-11377700D03*
X6906250Y-11377700D03*
X6986250Y-11377700D03*
X7066250Y-11377700D03*
X7146250Y-11377700D03*
X7226250Y-11377700D03*
%TD*%
D25*
%TO.C,Y1*%
X6758650Y-9575800D03*
X6978650Y-9575800D03*
X6978650Y-9405800D03*
X6758650Y-9405800D03*
%TD*%
D14*
%TO.C,MX7*%
X13836650Y-12893675D03*
D15*
X14344650Y-12893675D03*
D14*
X14852650Y-12893675D03*
%TD*%
D12*
%TO.C,D2*%
X11455400Y-10353675D03*
X11125400Y-10353675D03*
%TD*%
D16*
%TO.C,R3*%
X5975475Y-7484325D03*
X5975475Y-7301825D03*
%TD*%
D22*
%TO.C,C6*%
X7245850Y-11988800D03*
X7435850Y-11988800D03*
%TD*%
D17*
%TO.C,D7*%
X12633525Y-12338050D03*
X12963525Y-12338050D03*
%TD*%
D12*
%TO.C,D3*%
X13446025Y-10353675D03*
X13116025Y-10353675D03*
%TD*%
D17*
%TO.C,D8*%
X19856650Y-12338050D03*
X20186650Y-12338050D03*
%TD*%
D26*
%TO.C,C2*%
X6267450Y-9594600D03*
X6267450Y-9404600D03*
%TD*%
D21*
%TO.C,C1*%
X7537450Y-9391900D03*
X7537450Y-9581900D03*
%TD*%
D16*
%TO.C,R1*%
X8175625Y-11216450D03*
X8175625Y-11033950D03*
%TD*%
D17*
%TO.C,D6*%
X23355400Y-10289125D03*
X23685400Y-10289125D03*
%TD*%
D14*
%TO.C,MX1*%
X8963025Y-8918675D03*
D15*
X9471025Y-8918675D03*
D14*
X9979025Y-8918675D03*
%TD*%
D21*
%TO.C,C4*%
X5899150Y-9919200D03*
X5899150Y-10109200D03*
%TD*%
D14*
%TO.C,MX8*%
X17864900Y-12896800D03*
D15*
X18372900Y-12896800D03*
D14*
X18880900Y-12896800D03*
%TD*%
%TO.C,MX6*%
X22993350Y-8893175D03*
D15*
X23501350Y-8893175D03*
D14*
X24009350Y-8893175D03*
%TD*%
%LPD*%
M02*
