%TF.GenerationSoftware,KiCad,Pcbnew,7.0.2*%
%TF.CreationDate,2023-05-03T01:09:27+02:00*%
%TF.ProjectId,PCB GUIDANCE,50434220-4755-4494-9441-4e43452e6b69,rev?*%
%TF.SameCoordinates,Original*%
%TF.FileFunction,Copper,L1,Top*%
%TF.FilePolarity,Positive*%
%FSLAX45Y45*%
G04 Gerber Fmt 4.5, Leading zero omitted, Abs format (unit mm)*
G04 Created by KiCad (PCBNEW 7.0.2) date 2023-05-03 01:09:27*
%MOMM*%
%LPD*%
G01*
G04 APERTURE LIST*
G04 Aperture macros list*
%AMRoundRect*
0 Rectangle with rounded corners*
0 $1 Rounding radius*
0 $2 $3 $4 $5 $6 $7 $8 $9 X,Y pos of 4 corners*
0 Add a 4 corners polygon primitive as box body*
4,1,4,$2,$3,$4,$5,$6,$7,$8,$9,$2,$3,0*
0 Add four circle primitives for the rounded corners*
1,1,$1+$1,$2,$3*
1,1,$1+$1,$4,$5*
1,1,$1+$1,$6,$7*
1,1,$1+$1,$8,$9*
0 Add four rect primitives between the rounded corners*
20,1,$1+$1,$2,$3,$4,$5,0*
20,1,$1+$1,$4,$5,$6,$7,0*
20,1,$1+$1,$6,$7,$8,$9,0*
20,1,$1+$1,$8,$9,$2,$3,0*%
%AMHorizOval*
0 Thick line with rounded ends*
0 $1 width*
0 $2 $3 position (X,Y) of the first rounded end (center of the circle)*
0 $4 $5 position (X,Y) of the second rounded end (center of the circle)*
0 Add line between two ends*
20,1,$1,$2,$3,$4,$5,0*
0 Add two circle primitives to create the rounded ends*
1,1,$1,$2,$3*
1,1,$1,$4,$5*%
G04 Aperture macros list end*
%TA.AperFunction,SMDPad,CuDef*%
%ADD10RoundRect,0.225000X0.225000X0.375000X-0.225000X0.375000X-0.225000X-0.375000X0.225000X-0.375000X0*%
%TD*%
%TA.AperFunction,SMDPad,CuDef*%
%ADD11R,1.800000X1.100000*%
%TD*%
%TA.AperFunction,ComponentPad*%
%ADD12HorizOval,2.250000X0.655001X0.730000X-0.655001X-0.730000X0*%
%TD*%
%TA.AperFunction,ComponentPad*%
%ADD13C,2.250000*%
%TD*%
%TA.AperFunction,ComponentPad*%
%ADD14HorizOval,2.250000X0.020000X0.290000X-0.020000X-0.290000X0*%
%TD*%
%TA.AperFunction,ComponentPad*%
%ADD15C,1.905000*%
%TD*%
%TA.AperFunction,ComponentPad*%
%ADD16R,1.905000X1.905000*%
%TD*%
%TA.AperFunction,SMDPad,CuDef*%
%ADD17RoundRect,0.250000X0.450000X-0.262500X0.450000X0.262500X-0.450000X0.262500X-0.450000X-0.262500X0*%
%TD*%
%TA.AperFunction,SMDPad,CuDef*%
%ADD18RoundRect,0.225000X-0.225000X-0.375000X0.225000X-0.375000X0.225000X0.375000X-0.225000X0.375000X0*%
%TD*%
%TA.AperFunction,SMDPad,CuDef*%
%ADD19RoundRect,0.250000X0.625000X-0.375000X0.625000X0.375000X-0.625000X0.375000X-0.625000X-0.375000X0*%
%TD*%
%TA.AperFunction,SMDPad,CuDef*%
%ADD20R,0.500000X2.250000*%
%TD*%
%TA.AperFunction,ComponentPad*%
%ADD21O,1.700000X2.700000*%
%TD*%
%TA.AperFunction,SMDPad,CuDef*%
%ADD22RoundRect,0.250000X-0.475000X0.250000X-0.475000X-0.250000X0.475000X-0.250000X0.475000X0.250000X0*%
%TD*%
%TA.AperFunction,SMDPad,CuDef*%
%ADD23RoundRect,0.250000X-0.250000X-0.475000X0.250000X-0.475000X0.250000X0.475000X-0.250000X0.475000X0*%
%TD*%
%TA.AperFunction,SMDPad,CuDef*%
%ADD24R,1.500000X0.550000*%
%TD*%
%TA.AperFunction,SMDPad,CuDef*%
%ADD25R,0.550000X1.500000*%
%TD*%
%TA.AperFunction,SMDPad,CuDef*%
%ADD26R,1.400000X1.200000*%
%TD*%
%TA.AperFunction,SMDPad,CuDef*%
%ADD27RoundRect,0.250000X0.475000X-0.250000X0.475000X0.250000X-0.475000X0.250000X-0.475000X-0.250000X0*%
%TD*%
%TA.AperFunction,ViaPad*%
%ADD28C,0.800000*%
%TD*%
%TA.AperFunction,Conductor*%
%ADD29C,0.254000*%
%TD*%
%TA.AperFunction,Conductor*%
%ADD30C,0.200000*%
%TD*%
G04 APERTURE END LIST*
D10*
%TO.P,D1,1,K*%
%TO.N,ROW0*%
X9562900Y-10353675D03*
%TO.P,D1,2,A*%
%TO.N,Net-(D1-A)*%
X9232900Y-10353675D03*
%TD*%
D11*
%TO.P,SW1,1,1*%
%TO.N,GND*%
X8332350Y-13772300D03*
%TO.P,SW1,2,2*%
%TO.N,Net-(U1-~{RESET})*%
X8952350Y-14142300D03*
%TO.P,SW1,3*%
%TO.N,N/C*%
X8332350Y-14142300D03*
%TO.P,SW1,4*%
X8952350Y-13772300D03*
%TD*%
D12*
%TO.P,MX4,1,COL*%
%TO.N,COL1*%
X19337750Y-8566175D03*
D13*
X19403250Y-8493175D03*
D14*
%TO.P,MX4,2,ROW*%
%TO.N,Net-(D4-A)*%
X19905250Y-8414175D03*
D13*
X19907250Y-8385175D03*
D15*
%TO.P,MX4,3*%
%TO.N,N/C*%
X19526250Y-9401175D03*
D16*
%TO.P,MX4,4*%
X19780250Y-9401175D03*
%TD*%
D17*
%TO.P,R4,1*%
%TO.N,Net-(U1-~{HWB}{slash}PE2)*%
X5441950Y-10101200D03*
%TO.P,R4,2*%
%TO.N,GND*%
X5441950Y-9918700D03*
%TD*%
D18*
%TO.P,D5,1,K*%
%TO.N,ROW0*%
X21450400Y-10274300D03*
%TO.P,D5,2,A*%
%TO.N,Net-(D5-A)*%
X21780400Y-10274300D03*
%TD*%
D19*
%TO.P,F1,1*%
%TO.N,VCC*%
X8299450Y-12789200D03*
%TO.P,F1,2*%
%TO.N,+5V*%
X8299450Y-12509200D03*
%TD*%
D12*
%TO.P,MX2,1,COL*%
%TO.N,COL1*%
X11060525Y-8591675D03*
D13*
X11126025Y-8518675D03*
D14*
%TO.P,MX2,2,ROW*%
%TO.N,Net-(D2-A)*%
X11628025Y-8439675D03*
D13*
X11630025Y-8410675D03*
D15*
%TO.P,MX2,3*%
%TO.N,N/C*%
X11249025Y-9426675D03*
D16*
%TO.P,MX2,4*%
X11503025Y-9426675D03*
%TD*%
D20*
%TO.P,USB1,1,GND*%
%TO.N,GND*%
X5707400Y-6952400D03*
%TO.P,USB1,2,ID*%
%TO.N,unconnected-(USB1-ID-Pad2)*%
X5787400Y-6952400D03*
%TO.P,USB1,3,D+*%
%TO.N,D+*%
X5867400Y-6952400D03*
%TO.P,USB1,4,D-*%
%TO.N,D-*%
X5947400Y-6952400D03*
%TO.P,USB1,5,VBUS*%
%TO.N,VCC*%
X6027400Y-6952400D03*
D21*
%TO.P,USB1,6,SHIELD*%
%TO.N,unconnected-(USB1-SHIELD-Pad6)*%
X6232400Y-6502400D03*
X5502400Y-6502400D03*
X6232400Y-6952400D03*
X5502400Y-6952400D03*
%TD*%
D12*
%TO.P,MX3,1,COL*%
%TO.N,COL2*%
X12981400Y-8594750D03*
D13*
X13046900Y-8521750D03*
D14*
%TO.P,MX3,2,ROW*%
%TO.N,Net-(D3-A)*%
X13548900Y-8442750D03*
D13*
X13550900Y-8413750D03*
D15*
%TO.P,MX3,3*%
%TO.N,N/C*%
X13169900Y-9429750D03*
D16*
%TO.P,MX3,4*%
X13423900Y-9429750D03*
%TD*%
D12*
%TO.P,MX5,1,COL*%
%TO.N,COL1*%
X21268150Y-8566175D03*
D13*
X21333650Y-8493175D03*
D14*
%TO.P,MX5,2,ROW*%
%TO.N,Net-(D5-A)*%
X21835650Y-8414175D03*
D13*
X21837650Y-8385175D03*
D15*
%TO.P,MX5,3*%
%TO.N,N/C*%
X21456650Y-9401175D03*
D16*
%TO.P,MX5,4*%
X21710650Y-9401175D03*
%TD*%
D22*
%TO.P,C5,1*%
%TO.N,+5V*%
X8197850Y-10388600D03*
%TO.P,C5,2*%
%TO.N,GND*%
X8197850Y-10578600D03*
%TD*%
D17*
%TO.P,R2,1*%
%TO.N,D+*%
X5473700Y-7469950D03*
%TO.P,R2,2*%
%TO.N,Net-(U1-D+)*%
X5473700Y-7287450D03*
%TD*%
D23*
%TO.P,C3,1*%
%TO.N,Net-(U1-UCAP)*%
X5620250Y-10731500D03*
%TO.P,C3,2*%
%TO.N,GND*%
X5810250Y-10731500D03*
%TD*%
D10*
%TO.P,D4,1,K*%
%TO.N,ROW1*%
X19796025Y-10274300D03*
%TO.P,D4,2,A*%
%TO.N,Net-(D4-A)*%
X19466025Y-10274300D03*
%TD*%
D24*
%TO.P,U1,1,PE6*%
%TO.N,unconnected-(U1-PE6-Pad1)*%
X7396250Y-11207700D03*
%TO.P,U1,2,UVCC*%
%TO.N,+5V*%
X7396250Y-11127700D03*
%TO.P,U1,3,D-*%
%TO.N,Net-(U1-D-)*%
X7396250Y-11047700D03*
%TO.P,U1,4,D+*%
%TO.N,Net-(U1-D+)*%
X7396250Y-10967700D03*
%TO.P,U1,5,UGND*%
%TO.N,GND*%
X7396250Y-10887700D03*
%TO.P,U1,6,UCAP*%
%TO.N,Net-(U1-UCAP)*%
X7396250Y-10807700D03*
%TO.P,U1,7,VBUS*%
%TO.N,+5V*%
X7396250Y-10727700D03*
%TO.P,U1,8,PB0*%
%TO.N,unconnected-(U1-PB0-Pad8)*%
X7396250Y-10647700D03*
%TO.P,U1,9,PB1*%
%TO.N,unconnected-(U1-PB1-Pad9)*%
X7396250Y-10567700D03*
%TO.P,U1,10,PB2*%
%TO.N,unconnected-(U1-PB2-Pad10)*%
X7396250Y-10487700D03*
%TO.P,U1,11,PB3*%
%TO.N,unconnected-(U1-PB3-Pad11)*%
X7396250Y-10407700D03*
D25*
%TO.P,U1,12,PB7*%
%TO.N,unconnected-(U1-PB7-Pad12)*%
X7226250Y-10237700D03*
%TO.P,U1,13,~{RESET}*%
%TO.N,Net-(U1-~{RESET})*%
X7146250Y-10237700D03*
%TO.P,U1,14,VCC*%
%TO.N,+5V*%
X7066250Y-10237700D03*
%TO.P,U1,15,GND*%
%TO.N,GND*%
X6986250Y-10237700D03*
%TO.P,U1,16,XTAL2*%
%TO.N,Net-(U1-XTAL2)*%
X6906250Y-10237700D03*
%TO.P,U1,17,XTAL1*%
%TO.N,Net-(U1-XTAL1)*%
X6826250Y-10237700D03*
%TO.P,U1,18,PD0*%
%TO.N,unconnected-(U1-PD0-Pad18)*%
X6746250Y-10237700D03*
%TO.P,U1,19,PD1*%
%TO.N,unconnected-(U1-PD1-Pad19)*%
X6666250Y-10237700D03*
%TO.P,U1,20,PD2*%
%TO.N,unconnected-(U1-PD2-Pad20)*%
X6586250Y-10237700D03*
%TO.P,U1,21,PD3*%
%TO.N,unconnected-(U1-PD3-Pad21)*%
X6506250Y-10237700D03*
%TO.P,U1,22,PD5*%
%TO.N,unconnected-(U1-PD5-Pad22)*%
X6426250Y-10237700D03*
D24*
%TO.P,U1,23,GND*%
%TO.N,GND*%
X6256250Y-10407700D03*
%TO.P,U1,24,AVCC*%
%TO.N,+5V*%
X6256250Y-10487700D03*
%TO.P,U1,25,PD4*%
%TO.N,unconnected-(U1-PD4-Pad25)*%
X6256250Y-10567700D03*
%TO.P,U1,26,PD6*%
%TO.N,unconnected-(U1-PD6-Pad26)*%
X6256250Y-10647700D03*
%TO.P,U1,27,PD7*%
%TO.N,unconnected-(U1-PD7-Pad27)*%
X6256250Y-10727700D03*
%TO.P,U1,28,PB4*%
%TO.N,unconnected-(U1-PB4-Pad28)*%
X6256250Y-10807700D03*
%TO.P,U1,29,PB5*%
%TO.N,unconnected-(U1-PB5-Pad29)*%
X6256250Y-10887700D03*
%TO.P,U1,30,PB6*%
%TO.N,unconnected-(U1-PB6-Pad30)*%
X6256250Y-10967700D03*
%TO.P,U1,31,PC6*%
%TO.N,unconnected-(U1-PC6-Pad31)*%
X6256250Y-11047700D03*
%TO.P,U1,32,PC7*%
%TO.N,unconnected-(U1-PC7-Pad32)*%
X6256250Y-11127700D03*
%TO.P,U1,33,~{HWB}/PE2*%
%TO.N,Net-(U1-~{HWB}{slash}PE2)*%
X6256250Y-11207700D03*
D25*
%TO.P,U1,34,VCC*%
%TO.N,+5V*%
X6426250Y-11377700D03*
%TO.P,U1,35,GND*%
%TO.N,GND*%
X6506250Y-11377700D03*
%TO.P,U1,36,PF7*%
%TO.N,unconnected-(U1-PF7-Pad36)*%
X6586250Y-11377700D03*
%TO.P,U1,37,PF6*%
%TO.N,unconnected-(U1-PF6-Pad37)*%
X6666250Y-11377700D03*
%TO.P,U1,38,PF5*%
%TO.N,unconnected-(U1-PF5-Pad38)*%
X6746250Y-11377700D03*
%TO.P,U1,39,PF4*%
%TO.N,unconnected-(U1-PF4-Pad39)*%
X6826250Y-11377700D03*
%TO.P,U1,40,PF1*%
%TO.N,unconnected-(U1-PF1-Pad40)*%
X6906250Y-11377700D03*
%TO.P,U1,41,PF0*%
%TO.N,unconnected-(U1-PF0-Pad41)*%
X6986250Y-11377700D03*
%TO.P,U1,42,AREF*%
%TO.N,unconnected-(U1-AREF-Pad42)*%
X7066250Y-11377700D03*
%TO.P,U1,43,GND*%
%TO.N,GND*%
X7146250Y-11377700D03*
%TO.P,U1,44,AVCC*%
%TO.N,+5V*%
X7226250Y-11377700D03*
%TD*%
D26*
%TO.P,Y1,1,1*%
%TO.N,Net-(U1-XTAL1)*%
X6758650Y-9575800D03*
%TO.P,Y1,2,2*%
%TO.N,GND*%
X6978650Y-9575800D03*
%TO.P,Y1,3,3*%
%TO.N,Net-(U1-XTAL2)*%
X6978650Y-9405800D03*
%TO.P,Y1,4,4*%
%TO.N,GND*%
X6758650Y-9405800D03*
%TD*%
D12*
%TO.P,MX7,1,COL*%
%TO.N,COL1*%
X14029150Y-12566675D03*
D13*
X14094650Y-12493675D03*
D14*
%TO.P,MX7,2,ROW*%
%TO.N,Net-(D7-A)*%
X14596650Y-12414675D03*
D13*
X14598650Y-12385675D03*
D15*
%TO.P,MX7,3*%
%TO.N,N/C*%
X14217650Y-13401675D03*
D16*
%TO.P,MX7,4*%
X14471650Y-13401675D03*
%TD*%
D10*
%TO.P,D2,1,K*%
%TO.N,ROW0*%
X11455400Y-10353675D03*
%TO.P,D2,2,A*%
%TO.N,Net-(D2-A)*%
X11125400Y-10353675D03*
%TD*%
D17*
%TO.P,R3,1*%
%TO.N,D-*%
X5975475Y-7484325D03*
%TO.P,R3,2*%
%TO.N,Net-(U1-D-)*%
X5975475Y-7301825D03*
%TD*%
D23*
%TO.P,C6,1*%
%TO.N,+5V*%
X7245850Y-11988800D03*
%TO.P,C6,2*%
%TO.N,GND*%
X7435850Y-11988800D03*
%TD*%
D18*
%TO.P,D7,1,K*%
%TO.N,ROW0*%
X12633525Y-12338050D03*
%TO.P,D7,2,A*%
%TO.N,Net-(D7-A)*%
X12963525Y-12338050D03*
%TD*%
D10*
%TO.P,D3,1,K*%
%TO.N,ROW1*%
X13446025Y-10353675D03*
%TO.P,D3,2,A*%
%TO.N,Net-(D3-A)*%
X13116025Y-10353675D03*
%TD*%
D18*
%TO.P,D8,1,K*%
%TO.N,ROW1*%
X19856650Y-12338050D03*
%TO.P,D8,2,A*%
%TO.N,Net-(D8-A)*%
X20186650Y-12338050D03*
%TD*%
D27*
%TO.P,C2,1*%
%TO.N,GND*%
X6267450Y-9594600D03*
%TO.P,C2,2*%
%TO.N,Net-(U1-XTAL2)*%
X6267450Y-9404600D03*
%TD*%
D22*
%TO.P,C1,1*%
%TO.N,GND*%
X7537450Y-9391900D03*
%TO.P,C1,2*%
%TO.N,Net-(U1-XTAL1)*%
X7537450Y-9581900D03*
%TD*%
D17*
%TO.P,R1,1*%
%TO.N,+5V*%
X8175625Y-11216450D03*
%TO.P,R1,2*%
%TO.N,Net-(U1-~{RESET})*%
X8175625Y-11033950D03*
%TD*%
D18*
%TO.P,D6,1,K*%
%TO.N,ROW1*%
X23355400Y-10289125D03*
%TO.P,D6,2,A*%
%TO.N,Net-(D6-A)*%
X23685400Y-10289125D03*
%TD*%
D12*
%TO.P,MX1,1,COL*%
%TO.N,COL2*%
X9155525Y-8591675D03*
D13*
X9221025Y-8518675D03*
D14*
%TO.P,MX1,2,ROW*%
%TO.N,Net-(D1-A)*%
X9723025Y-8439675D03*
D13*
X9725025Y-8410675D03*
D15*
%TO.P,MX1,3*%
%TO.N,N/C*%
X9344025Y-9426675D03*
D16*
%TO.P,MX1,4*%
X9598025Y-9426675D03*
%TD*%
D22*
%TO.P,C4,1*%
%TO.N,+5V*%
X5899150Y-9919200D03*
%TO.P,C4,2*%
%TO.N,GND*%
X5899150Y-10109200D03*
%TD*%
D12*
%TO.P,MX8,1,COL*%
%TO.N,COL1*%
X18057400Y-12569800D03*
D13*
X18122900Y-12496800D03*
D14*
%TO.P,MX8,2,ROW*%
%TO.N,Net-(D8-A)*%
X18624900Y-12417800D03*
D13*
X18626900Y-12388800D03*
D15*
%TO.P,MX8,3*%
%TO.N,N/C*%
X18245900Y-13404800D03*
D16*
%TO.P,MX8,4*%
X18499900Y-13404800D03*
%TD*%
D12*
%TO.P,MX6,1,COL*%
%TO.N,COL1*%
X23185850Y-8566175D03*
D13*
X23251350Y-8493175D03*
D14*
%TO.P,MX6,2,ROW*%
%TO.N,Net-(D6-A)*%
X23753350Y-8414175D03*
D13*
X23755350Y-8385175D03*
D15*
%TO.P,MX6,3*%
%TO.N,N/C*%
X23374350Y-9401175D03*
D16*
%TO.P,MX6,4*%
X23628350Y-9401175D03*
%TD*%
D28*
%TO.N,GND*%
X7835900Y-10337800D03*
X6756400Y-11963400D03*
X7772400Y-10858500D03*
%TO.N,Net-(U1-XTAL2)*%
X6248400Y-9055100D03*
X7175500Y-9474200D03*
%TO.N,Net-(U1-UCAP)*%
X5626100Y-10502900D03*
X7581900Y-10642600D03*
%TO.N,+5V*%
X6540500Y-11798300D03*
X7658100Y-11201400D03*
X7924800Y-12992100D03*
X8267700Y-12204700D03*
X8204200Y-11455400D03*
X7061200Y-10464800D03*
X6680200Y-10426700D03*
%TO.N,Net-(U1-D+)*%
X6502400Y-10972800D03*
X5029200Y-7848600D03*
%TO.N,Net-(U1-D-)*%
X7696200Y-10426700D03*
X6731000Y-11137900D03*
%TO.N,unconnected-(U1-PB3-Pad11)*%
X7385104Y-10331396D03*
%TO.N,unconnected-(U1-PD4-Pad25)*%
X7061200Y-12331700D03*
%TO.N,unconnected-(U1-PD6-Pad26)*%
X5956300Y-10934700D03*
%TO.N,unconnected-(U1-PC7-Pad32)*%
X7213600Y-13258800D03*
X6070600Y-11620500D03*
X6045200Y-11087100D03*
%TO.N,unconnected-(U1-PF7-Pad36)*%
X6769100Y-11645900D03*
%TO.N,unconnected-(U1-PF6-Pad37)*%
X6858000Y-11531600D03*
%TO.N,unconnected-(U1-PF1-Pad40)*%
X6768592Y-11745849D03*
%TD*%
D29*
%TO.N,GND*%
X6769100Y-11950700D02*
X6756400Y-11963400D01*
X6267450Y-9594600D02*
X6069650Y-9594600D01*
X7608850Y-9664600D02*
X7067450Y-9664600D01*
X7396250Y-10887700D02*
X7295850Y-10887700D01*
X6887000Y-12094000D02*
X7330650Y-12094000D01*
X6756400Y-11963400D02*
X6887000Y-12094000D01*
X6978650Y-9575800D02*
X6978650Y-10230100D01*
X7496650Y-10887700D02*
X7525850Y-10858500D01*
X7537450Y-9391900D02*
X7642650Y-9497100D01*
X7503950Y-10907500D02*
X7484150Y-10887700D01*
X5899150Y-10172800D02*
X6134050Y-10407700D01*
X5793950Y-9870300D02*
X5793950Y-10004000D01*
X5899150Y-10109200D02*
X5899150Y-10172800D01*
X7146250Y-11471950D02*
X7146250Y-11377700D01*
X5708650Y-9918700D02*
X5899150Y-10109200D01*
X6456250Y-9405800D02*
X6758650Y-9405800D01*
X7067450Y-9664600D02*
X6978650Y-9575800D01*
X7642650Y-9630800D02*
X7608850Y-9664600D01*
X7642650Y-9497100D02*
X7642650Y-9630800D01*
X7146250Y-11125600D02*
X7288550Y-11267900D01*
X7350125Y-12790075D02*
X8332350Y-13772300D01*
X6267450Y-9594600D02*
X6456250Y-9405800D01*
X5810250Y-10731500D02*
X6134050Y-10407700D01*
X6069650Y-9594600D02*
X5793950Y-9870300D01*
X7146250Y-11377700D02*
X7146250Y-11125600D01*
X7835900Y-10337800D02*
X7957050Y-10337800D01*
X6758650Y-9405800D02*
X5707400Y-8354550D01*
X7396250Y-10887700D02*
X7496650Y-10887700D01*
X7330650Y-12094000D02*
X7350125Y-12074525D01*
X6986250Y-10578100D02*
X6986250Y-10237700D01*
X6506250Y-11377700D02*
X6506250Y-11586250D01*
X6769100Y-11849100D02*
X7146250Y-11471950D01*
X7288550Y-11267900D02*
X7503950Y-11267900D01*
X6978650Y-10230100D02*
X6986250Y-10237700D01*
X7525850Y-10858500D02*
X7772400Y-10858500D01*
X6134050Y-10407700D02*
X6256250Y-10407700D01*
X5793950Y-10004000D02*
X5899150Y-10109200D01*
X5707400Y-8354550D02*
X5707400Y-6952400D01*
X6769100Y-11849100D02*
X6769100Y-11950700D01*
X7484150Y-10887700D02*
X7295850Y-10887700D01*
X5441950Y-9918700D02*
X5708650Y-9918700D01*
X7350125Y-12074525D02*
X7435850Y-11988800D01*
X7503950Y-11267900D02*
X7503950Y-10907500D01*
X7295850Y-10887700D02*
X6986250Y-10578100D01*
X6506250Y-11586250D02*
X6769100Y-11849100D01*
X7350125Y-12074525D02*
X7350125Y-12790075D01*
X7957050Y-10337800D02*
X8197850Y-10578600D01*
%TO.N,Net-(U1-XTAL1)*%
X6758650Y-9575800D02*
X6826250Y-9643400D01*
X6875950Y-9313100D02*
X6875950Y-9615000D01*
X6826250Y-9643400D02*
X6826250Y-9664700D01*
X6826250Y-9664700D02*
X6826250Y-10237700D01*
X6875950Y-9615000D02*
X6826250Y-9664700D01*
X7268650Y-9313100D02*
X6875950Y-9313100D01*
X7537450Y-9581900D02*
X7268650Y-9313100D01*
%TO.N,Net-(U1-XTAL2)*%
X7175500Y-9474200D02*
X7047050Y-9474200D01*
X7047050Y-9474200D02*
X6978650Y-9405800D01*
X6267450Y-9074150D02*
X6248400Y-9055100D01*
X6267450Y-9404600D02*
X6267450Y-9074150D01*
%TO.N,Net-(U1-UCAP)*%
X7581900Y-10722450D02*
X7581900Y-10642600D01*
X5626100Y-10725650D02*
X5620250Y-10731500D01*
X5626100Y-10502900D02*
X5626100Y-10725650D01*
X7496650Y-10807700D02*
X7581900Y-10722450D01*
X7396250Y-10807700D02*
X7496650Y-10807700D01*
%TO.N,+5V*%
X8175625Y-11216450D02*
X8175625Y-11426825D01*
X6540500Y-11798300D02*
X6426250Y-11684050D01*
X6426250Y-10409800D02*
X6663300Y-10409800D01*
X6352125Y-10335675D02*
X6363950Y-10347500D01*
X7226250Y-11969200D02*
X7245850Y-11988800D01*
X7835900Y-12203575D02*
X7835900Y-12941300D01*
X7835900Y-12941300D02*
X7874000Y-12941300D01*
X7245850Y-11988800D02*
X7351050Y-11883600D01*
X8303050Y-11127950D02*
X8303050Y-10493800D01*
X6356650Y-10487700D02*
X6256250Y-10487700D01*
X7324100Y-10727700D02*
X7061200Y-10464800D01*
X8175625Y-11426825D02*
X8204200Y-11455400D01*
X7458355Y-11377700D02*
X7226250Y-11377700D01*
X6663300Y-10409800D02*
X6680200Y-10426700D01*
X7396250Y-10727700D02*
X7324100Y-10727700D01*
X5899150Y-9919200D02*
X5935650Y-9919200D01*
X8303050Y-10493800D02*
X8197850Y-10388600D01*
X7515925Y-11883600D02*
X7835900Y-12203575D01*
X8175625Y-11216450D02*
X8214550Y-11216450D01*
X8299450Y-12236450D02*
X8299450Y-12509200D01*
X6426250Y-11684050D02*
X6426250Y-11377700D01*
X7874000Y-12941300D02*
X7924800Y-12992100D01*
X6363950Y-10347500D02*
X6363950Y-10480400D01*
X7061200Y-10464800D02*
X7061200Y-10242750D01*
X7226250Y-11377700D02*
X7226250Y-11969200D01*
X8214550Y-11216450D02*
X8303050Y-11127950D01*
X8267700Y-12204700D02*
X8299450Y-12236450D01*
X5935650Y-9919200D02*
X6352125Y-10335675D01*
X7634655Y-11201400D02*
X7458355Y-11377700D01*
X6426250Y-10409800D02*
X6426250Y-11377700D01*
X7061200Y-10242750D02*
X7066250Y-10237700D01*
X6363950Y-10480400D02*
X6356650Y-10487700D01*
X6352125Y-10335675D02*
X6426250Y-10409800D01*
X7658100Y-11201400D02*
X7634655Y-11201400D01*
X7351050Y-11883600D02*
X7515925Y-11883600D01*
%TO.N,ROW0*%
X9562900Y-10353675D02*
X10987335Y-10353675D01*
X10987335Y-10353675D02*
X11080035Y-10446375D01*
X12633525Y-11709400D02*
X20015300Y-11709400D01*
X11374437Y-10434638D02*
X12633525Y-11693725D01*
X11362700Y-10446375D02*
X11374437Y-10434638D01*
X11374437Y-10434638D02*
X11455400Y-10353675D01*
X11080035Y-10446375D02*
X11362700Y-10446375D01*
X12633525Y-11693725D02*
X12633525Y-11709400D01*
X20015300Y-11709400D02*
X21450400Y-10274300D01*
X12633525Y-11709400D02*
X12633525Y-12338050D01*
%TO.N,Net-(D2-A)*%
X12009225Y-8851875D02*
X11626025Y-8468675D01*
X11125400Y-10353675D02*
X12009225Y-9469850D01*
X12009225Y-9469850D02*
X12009225Y-8851875D01*
%TO.N,ROW1*%
X13459350Y-10367000D02*
X13446025Y-10353675D01*
X23247875Y-10181600D02*
X23355400Y-10289125D01*
X19703325Y-10367000D02*
X13459350Y-10367000D01*
X19856650Y-12338050D02*
X21905575Y-10289125D01*
X19796025Y-10274300D02*
X19888725Y-10181600D01*
X19796025Y-10274300D02*
X19703325Y-10367000D01*
X19888725Y-10181600D02*
X23247875Y-10181600D01*
X21905575Y-10289125D02*
X23355400Y-10289125D01*
%TO.N,Net-(D3-A)*%
X13551850Y-8845760D02*
X13551850Y-9917850D01*
X13546900Y-8840810D02*
X13551850Y-8845760D01*
X13546900Y-8471750D02*
X13546900Y-8840810D01*
X13551850Y-9917850D02*
X13116025Y-10353675D01*
%TO.N,Net-(D4-A)*%
X20036050Y-9704275D02*
X20036050Y-8575975D01*
X20036050Y-8575975D02*
X19903250Y-8443175D01*
X19466025Y-10274300D02*
X20036050Y-9704275D01*
%TO.N,VCC*%
X8419650Y-9432150D02*
X8419650Y-12669000D01*
X6027400Y-7039900D02*
X8419650Y-9432150D01*
X8419650Y-12669000D02*
X8299450Y-12789200D01*
X6027400Y-6952400D02*
X6027400Y-7039900D01*
%TO.N,COL1*%
X20371959Y-8639175D02*
X19977241Y-8244457D01*
X21479650Y-8639175D02*
X21333650Y-8493175D01*
X23120350Y-8639175D02*
X21479650Y-8639175D01*
X19977241Y-8244457D02*
X19857239Y-8236181D01*
X21202650Y-8639175D02*
X20371959Y-8639175D01*
X19857239Y-8236181D02*
X19660244Y-8236181D01*
X19660244Y-8236181D02*
X19403250Y-8493175D01*
%TO.N,Net-(U1-~{RESET})*%
X8072925Y-11136650D02*
X8175625Y-11033950D01*
X7153550Y-10130000D02*
X7146250Y-10137300D01*
X8072925Y-11136650D02*
X8072925Y-10916475D01*
X7146250Y-10137300D02*
X7146250Y-10237700D01*
X8072925Y-10916475D02*
X7286450Y-10130000D01*
X8072925Y-13262875D02*
X8072925Y-11136650D01*
X7286450Y-10130000D02*
X7153550Y-10130000D01*
X8952350Y-14142300D02*
X8072925Y-13262875D01*
D30*
%TO.N,D+*%
X5473700Y-7469950D02*
X5652400Y-7291250D01*
X5652400Y-6809900D02*
X5842400Y-6809900D01*
X5842400Y-6809900D02*
X5867400Y-6834900D01*
X5652400Y-7291250D02*
X5652400Y-6809900D01*
X5867400Y-6834900D02*
X5867400Y-6952400D01*
D29*
%TO.N,Net-(U1-D+)*%
X5029200Y-7848600D02*
X5029200Y-7731950D01*
X7396250Y-10967700D02*
X6507500Y-10967700D01*
X6507500Y-10967700D02*
X6502400Y-10972800D01*
X5029200Y-7731950D02*
X5473700Y-7287450D01*
D30*
%TO.N,D-*%
X5947400Y-6952400D02*
X5947400Y-7124718D01*
X6075475Y-7252793D02*
X6075475Y-7384325D01*
X6075475Y-7384325D02*
X5975475Y-7484325D01*
X5947400Y-7124718D02*
X6075475Y-7252793D01*
D29*
%TO.N,Net-(U1-D-)*%
X7708900Y-10414000D02*
X7696200Y-10426700D01*
X7708900Y-10210800D02*
X7708900Y-10414000D01*
X7708900Y-9409250D02*
X7708900Y-10210800D01*
X6731000Y-11137900D02*
X6821200Y-11047700D01*
X5872775Y-7573125D02*
X7708900Y-9409250D01*
X5872775Y-7404525D02*
X5872775Y-7573125D01*
X5975475Y-7301825D02*
X5872775Y-7404525D01*
X6821200Y-11047700D02*
X7396250Y-11047700D01*
%TO.N,Net-(U1-~{HWB}{slash}PE2)*%
X5942350Y-11207700D02*
X5441950Y-10707300D01*
X6256250Y-11207700D02*
X5942350Y-11207700D01*
X5441950Y-10707300D02*
X5441950Y-10101200D01*
%TO.N,unconnected-(U1-PB3-Pad11)*%
X7396250Y-10342543D02*
X7385104Y-10331396D01*
X7396250Y-10407700D02*
X7396250Y-10342543D01*
%TO.N,unconnected-(U1-PD4-Pad25)*%
X6344150Y-10567700D02*
X6363950Y-10587500D01*
X6256250Y-10567700D02*
X6344150Y-10567700D01*
X6997700Y-12331700D02*
X7061200Y-12331700D01*
X6972300Y-12357100D02*
X6997700Y-12331700D01*
X6363950Y-10587500D02*
X6363950Y-11748750D01*
X6363950Y-11748750D02*
X6972300Y-12357100D01*
%TO.N,unconnected-(U1-PD6-Pad26)*%
X5943600Y-10859950D02*
X5943600Y-10922000D01*
X6256250Y-10647700D02*
X6155850Y-10647700D01*
X6155850Y-10647700D02*
X5943600Y-10859950D01*
X5943600Y-10922000D02*
X5956300Y-10934700D01*
%TO.N,unconnected-(U1-PC7-Pad32)*%
X6070600Y-12115800D02*
X7213600Y-13258800D01*
X6085800Y-11127700D02*
X6045200Y-11087100D01*
X6256250Y-11127700D02*
X6085800Y-11127700D01*
X6070600Y-11620500D02*
X6070600Y-12115800D01*
%TO.N,unconnected-(U1-PF7-Pad36)*%
X6766550Y-11645900D02*
X6769100Y-11645900D01*
X6586250Y-11465600D02*
X6766550Y-11645900D01*
X6586250Y-11377700D02*
X6586250Y-11465600D01*
%TO.N,unconnected-(U1-PF6-Pad37)*%
X6666250Y-11377700D02*
X6666250Y-11478100D01*
X6666250Y-11478100D02*
X6719750Y-11531600D01*
X6719750Y-11531600D02*
X6858000Y-11531600D01*
%TO.N,unconnected-(U1-PF1-Pad40)*%
X6930700Y-11501487D02*
X6930700Y-11587113D01*
X6906250Y-11377700D02*
X6906250Y-11477037D01*
X6771965Y-11745849D02*
X6768592Y-11745849D01*
X6906250Y-11477037D02*
X6930700Y-11501487D01*
X6930700Y-11587113D02*
X6771965Y-11745849D01*
%TO.N,Net-(D6-A)*%
X23756300Y-8448125D02*
X23751350Y-8443175D01*
X23756300Y-10218225D02*
X23756300Y-8448125D01*
X23685400Y-10289125D02*
X23756300Y-10218225D01*
%TO.N,Net-(D7-A)*%
X14551025Y-12338050D02*
X14598650Y-12385675D01*
X12963525Y-12338050D02*
X14551025Y-12338050D01*
%TO.N,Net-(D8-A)*%
X20093950Y-12430750D02*
X18638950Y-12430750D01*
X20186650Y-12338050D02*
X20093950Y-12430750D01*
X18638950Y-12430750D02*
X18622900Y-12446800D01*
%TD*%
M02*
