M48
; DRILL file {KiCad 7.0.2} date Wed May  3 01:09:52 2023
; FORMAT={-:-/ absolute / inch / decimal}
; #@! TF.CreationDate,2023-05-03T01:09:52+02:00
; #@! TF.GenerationSoftware,Kicad,Pcbnew,7.0.2
; #@! TF.FileFunction,Plated,1,2,PTH
FMAT,2
INCH
; #@! TA.AperFunction,Plated,PTH,ViaDrill
T1C0.0157
; #@! TA.AperFunction,Plated,PTH,ComponentDrill
T2C0.0276
; #@! TA.AperFunction,Plated,PTH,ComponentDrill
T3C0.0409
; #@! TA.AperFunction,Plated,PTH,ComponentDrill
T4C0.0579
%
G90
G05
T1
X1.98Y-3.09
X2.215Y-4.135
X2.345Y-4.305
X2.38Y-4.365
X2.39Y-4.575
X2.46Y-3.565
X2.56Y-4.32
X2.575Y-4.645
X2.63Y-4.105
X2.65Y-4.385
X2.66Y-4.71
X2.6648Y-4.6243
X2.665Y-4.585
X2.7Y-4.54
X2.78Y-4.12
X2.78Y-4.855
X2.825Y-3.73
X2.84Y-5.22
X2.9075Y-4.0675
X2.985Y-4.19
X3.015Y-4.41
X3.03Y-4.105
X3.06Y-4.275
X3.085Y-4.07
X3.12Y-5.115
X3.23Y-4.51
X3.255Y-4.805
T3
X3.6787Y-3.7113
X3.7788Y-3.7113
X4.4287Y-3.7113
X4.5287Y-3.7113
X5.185Y-3.7125
X5.285Y-3.7125
X5.5975Y-5.2763
X5.6975Y-5.2763
X7.1834Y-5.2775
X7.2834Y-5.2775
X7.6875Y-3.7012
X7.7875Y-3.7012
X8.4475Y-3.7012
X8.5475Y-3.7012
X9.2025Y-3.7012
X9.3025Y-3.7012
T4
X3.5787Y-3.4113
X3.6303Y-3.3538
X3.8272Y-3.3341
X3.8287Y-3.3113
X4.3288Y-3.4113
X4.3803Y-3.3538
X4.5772Y-3.3341
X4.5788Y-3.3113
X5.085Y-3.4125
X5.1366Y-3.355
X5.3334Y-3.3353
X5.335Y-3.3125
X5.4975Y-4.9763
X5.5491Y-4.9188
X5.7459Y-4.8991
X5.7475Y-4.8762
X7.0834Y-4.9775
X7.135Y-4.92
X7.3319Y-4.9003
X7.3334Y-4.8775
X7.5875Y-3.4013
X7.6391Y-3.3438
X7.8359Y-3.3241
X7.8375Y-3.3013
X8.3475Y-3.4013
X8.3991Y-3.3438
X8.5959Y-3.3241
X8.5975Y-3.3013
X9.1025Y-3.4013
X9.1541Y-3.3438
X9.3509Y-3.3241
X9.3525Y-3.3013
T2
G00X2.1663Y-2.5364
M15
G01X2.1663Y-2.5836
M16
G05
G00X2.1663Y-2.7135
M15
G01X2.1663Y-2.7608
M16
G05
G00X2.4537Y-2.5364
M15
G01X2.4537Y-2.5836
M16
G05
G00X2.4537Y-2.7135
M15
G01X2.4537Y-2.7608
M16
G05
T0
M30
