M48
; DRILL file {KiCad 7.0.2} date Wed May  3 01:09:52 2023
; FORMAT={-:-/ absolute / inch / decimal}
; #@! TF.CreationDate,2023-05-03T01:09:52+02:00
; #@! TF.GenerationSoftware,Kicad,Pcbnew,7.0.2
; #@! TF.FileFunction,NonPlated,1,2,NPTH
FMAT,2
INCH
; #@! TA.AperFunction,NonPlated,NPTH,ComponentDrill
T1C0.0689
; #@! TA.AperFunction,NonPlated,NPTH,ComponentDrill
T2C0.1570
%
G90
G05
T1
X3.5288Y-3.5113
X3.9287Y-3.5113
X4.2787Y-3.5113
X4.6787Y-3.5113
X5.035Y-3.5125
X5.435Y-3.5125
X5.4475Y-5.0762
X5.8475Y-5.0762
X7.0334Y-5.0775
X7.4334Y-5.0775
X7.5375Y-3.5012
X7.9375Y-3.5012
X8.2975Y-3.5012
X8.6975Y-3.5012
X9.0525Y-3.5012
X9.4525Y-3.5012
T2
X3.7287Y-3.5113
X4.4787Y-3.5113
X5.235Y-3.5125
X5.6475Y-5.0762
X7.2334Y-5.0775
X7.7375Y-3.5012
X8.4975Y-3.5012
X9.2525Y-3.5012
T0
M30
