%TF.GenerationSoftware,KiCad,Pcbnew,7.0.2*%
%TF.CreationDate,2023-05-03T01:09:27+02:00*%
%TF.ProjectId,PCB GUIDANCE,50434220-4755-4494-9441-4e43452e6b69,rev?*%
%TF.SameCoordinates,Original*%
%TF.FileFunction,Copper,L2,Bot*%
%TF.FilePolarity,Positive*%
%FSLAX45Y45*%
G04 Gerber Fmt 4.5, Leading zero omitted, Abs format (unit mm)*
G04 Created by KiCad (PCBNEW 7.0.2) date 2023-05-03 01:09:27*
%MOMM*%
%LPD*%
G01*
G04 APERTURE LIST*
G04 Aperture macros list*
%AMRoundRect*
0 Rectangle with rounded corners*
0 $1 Rounding radius*
0 $2 $3 $4 $5 $6 $7 $8 $9 X,Y pos of 4 corners*
0 Add a 4 corners polygon primitive as box body*
4,1,4,$2,$3,$4,$5,$6,$7,$8,$9,$2,$3,0*
0 Add four circle primitives for the rounded corners*
1,1,$1+$1,$2,$3*
1,1,$1+$1,$4,$5*
1,1,$1+$1,$6,$7*
1,1,$1+$1,$8,$9*
0 Add four rect primitives between the rounded corners*
20,1,$1+$1,$2,$3,$4,$5,0*
20,1,$1+$1,$4,$5,$6,$7,0*
20,1,$1+$1,$6,$7,$8,$9,0*
20,1,$1+$1,$8,$9,$2,$3,0*%
%AMHorizOval*
0 Thick line with rounded ends*
0 $1 width*
0 $2 $3 position (X,Y) of the first rounded end (center of the circle)*
0 $4 $5 position (X,Y) of the second rounded end (center of the circle)*
0 Add line between two ends*
20,1,$1,$2,$3,$4,$5,0*
0 Add two circle primitives to create the rounded ends*
1,1,$1,$2,$3*
1,1,$1,$4,$5*%
G04 Aperture macros list end*
%TA.AperFunction,ComponentPad*%
%ADD10HorizOval,2.250000X0.655001X0.730000X-0.655001X-0.730000X0*%
%TD*%
%TA.AperFunction,ComponentPad*%
%ADD11C,2.250000*%
%TD*%
%TA.AperFunction,ComponentPad*%
%ADD12HorizOval,2.250000X0.020000X0.290000X-0.020000X-0.290000X0*%
%TD*%
%TA.AperFunction,ComponentPad*%
%ADD13C,1.905000*%
%TD*%
%TA.AperFunction,ComponentPad*%
%ADD14R,1.905000X1.905000*%
%TD*%
%TA.AperFunction,ComponentPad*%
%ADD15O,1.700000X2.700000*%
%TD*%
%TA.AperFunction,SMDPad,CuDef*%
%ADD16RoundRect,0.250000X0.250000X0.475000X-0.250000X0.475000X-0.250000X-0.475000X0.250000X-0.475000X0*%
%TD*%
%TA.AperFunction,ViaPad*%
%ADD17C,0.800000*%
%TD*%
%TA.AperFunction,Conductor*%
%ADD18C,0.254000*%
%TD*%
G04 APERTURE END LIST*
D10*
%TO.P,MX4,1,COL*%
%TO.N,COL1*%
X19337750Y-8566175D03*
D11*
X19403250Y-8493175D03*
D12*
%TO.P,MX4,2,ROW*%
%TO.N,Net-(D4-A)*%
X19905250Y-8414175D03*
D11*
X19907250Y-8385175D03*
D13*
%TO.P,MX4,3*%
%TO.N,N/C*%
X19526250Y-9401175D03*
D14*
%TO.P,MX4,4*%
X19780250Y-9401175D03*
%TD*%
D10*
%TO.P,MX2,1,COL*%
%TO.N,COL1*%
X11060525Y-8591675D03*
D11*
X11126025Y-8518675D03*
D12*
%TO.P,MX2,2,ROW*%
%TO.N,Net-(D2-A)*%
X11628025Y-8439675D03*
D11*
X11630025Y-8410675D03*
D13*
%TO.P,MX2,3*%
%TO.N,N/C*%
X11249025Y-9426675D03*
D14*
%TO.P,MX2,4*%
X11503025Y-9426675D03*
%TD*%
D15*
%TO.P,USB1,6,SHIELD*%
%TO.N,unconnected-(USB1-SHIELD-Pad6)*%
X6232400Y-6502400D03*
X5502400Y-6502400D03*
X6232400Y-6952400D03*
X5502400Y-6952400D03*
%TD*%
D10*
%TO.P,MX3,1,COL*%
%TO.N,COL2*%
X12981400Y-8594750D03*
D11*
X13046900Y-8521750D03*
D12*
%TO.P,MX3,2,ROW*%
%TO.N,Net-(D3-A)*%
X13548900Y-8442750D03*
D11*
X13550900Y-8413750D03*
D13*
%TO.P,MX3,3*%
%TO.N,N/C*%
X13169900Y-9429750D03*
D14*
%TO.P,MX3,4*%
X13423900Y-9429750D03*
%TD*%
D10*
%TO.P,MX5,1,COL*%
%TO.N,COL1*%
X21268150Y-8566175D03*
D11*
X21333650Y-8493175D03*
D12*
%TO.P,MX5,2,ROW*%
%TO.N,Net-(D5-A)*%
X21835650Y-8414175D03*
D11*
X21837650Y-8385175D03*
D13*
%TO.P,MX5,3*%
%TO.N,N/C*%
X21456650Y-9401175D03*
D14*
%TO.P,MX5,4*%
X21710650Y-9401175D03*
%TD*%
D10*
%TO.P,MX7,1,COL*%
%TO.N,COL1*%
X14029150Y-12566675D03*
D11*
X14094650Y-12493675D03*
D12*
%TO.P,MX7,2,ROW*%
%TO.N,Net-(D7-A)*%
X14596650Y-12414675D03*
D11*
X14598650Y-12385675D03*
D13*
%TO.P,MX7,3*%
%TO.N,N/C*%
X14217650Y-13401675D03*
D14*
%TO.P,MX7,4*%
X14471650Y-13401675D03*
%TD*%
D10*
%TO.P,MX1,1,COL*%
%TO.N,COL2*%
X9155525Y-8591675D03*
D11*
X9221025Y-8518675D03*
D12*
%TO.P,MX1,2,ROW*%
%TO.N,Net-(D1-A)*%
X9723025Y-8439675D03*
D11*
X9725025Y-8410675D03*
D13*
%TO.P,MX1,3*%
%TO.N,N/C*%
X9344025Y-9426675D03*
D14*
%TO.P,MX1,4*%
X9598025Y-9426675D03*
%TD*%
D10*
%TO.P,MX8,1,COL*%
%TO.N,COL1*%
X18057400Y-12569800D03*
D11*
X18122900Y-12496800D03*
D12*
%TO.P,MX8,2,ROW*%
%TO.N,Net-(D8-A)*%
X18624900Y-12417800D03*
D11*
X18626900Y-12388800D03*
D13*
%TO.P,MX8,3*%
%TO.N,N/C*%
X18245900Y-13404800D03*
D14*
%TO.P,MX8,4*%
X18499900Y-13404800D03*
%TD*%
D10*
%TO.P,MX6,1,COL*%
%TO.N,COL1*%
X23185850Y-8566175D03*
D11*
X23251350Y-8493175D03*
D12*
%TO.P,MX6,2,ROW*%
%TO.N,Net-(D6-A)*%
X23753350Y-8414175D03*
D11*
X23755350Y-8385175D03*
D13*
%TO.P,MX6,3*%
%TO.N,N/C*%
X23374350Y-9401175D03*
D14*
%TO.P,MX6,4*%
X23628350Y-9401175D03*
%TD*%
D16*
%TO.P,C7,1*%
%TO.N,+5V*%
X6432550Y-11988800D03*
%TO.P,C7,2*%
%TO.N,GND*%
X6242550Y-11988800D03*
%TD*%
D17*
%TO.N,GND*%
X7835900Y-10337800D03*
X6756400Y-11963400D03*
X7772400Y-10858500D03*
%TO.N,Net-(U1-XTAL2)*%
X6248400Y-9055100D03*
X7175500Y-9474200D03*
%TO.N,Net-(U1-UCAP)*%
X5626100Y-10502900D03*
X7581900Y-10642600D03*
%TO.N,+5V*%
X6540500Y-11798300D03*
X7658100Y-11201400D03*
X7924800Y-12992100D03*
X8267700Y-12204700D03*
X8204200Y-11455400D03*
X7061200Y-10464800D03*
X6680200Y-10426700D03*
%TO.N,Net-(U1-D+)*%
X6502400Y-10972800D03*
X5029200Y-7848600D03*
%TO.N,Net-(U1-D-)*%
X7696200Y-10426700D03*
X6731000Y-11137900D03*
%TO.N,unconnected-(U1-PB3-Pad11)*%
X7385104Y-10331396D03*
%TO.N,unconnected-(U1-PD4-Pad25)*%
X7061200Y-12331700D03*
%TO.N,unconnected-(U1-PD6-Pad26)*%
X5956300Y-10934700D03*
%TO.N,unconnected-(U1-PC7-Pad32)*%
X7213600Y-13258800D03*
X6070600Y-11620500D03*
X6045200Y-11087100D03*
%TO.N,unconnected-(U1-PF7-Pad36)*%
X6769100Y-11645900D03*
%TO.N,unconnected-(U1-PF6-Pad37)*%
X6858000Y-11531600D03*
%TO.N,unconnected-(U1-PF1-Pad40)*%
X6768592Y-11745849D03*
%TD*%
D18*
%TO.N,GND*%
X6756400Y-11963400D02*
X6625800Y-12094000D01*
X7835900Y-10795000D02*
X7835900Y-10337800D01*
X6347750Y-12094000D02*
X6242550Y-11988800D01*
X7772400Y-10858500D02*
X7835900Y-10795000D01*
X6625800Y-12094000D02*
X6347750Y-12094000D01*
%TO.N,Net-(U1-XTAL2)*%
X6248400Y-9055100D02*
X6845300Y-9055100D01*
X7175500Y-9385300D02*
X7175500Y-9474200D01*
X6845300Y-9055100D02*
X7175500Y-9385300D01*
%TO.N,Net-(U1-UCAP)*%
X5740400Y-10452100D02*
X5676900Y-10452100D01*
X7179000Y-11045500D02*
X6333800Y-11045500D01*
X7581900Y-10642600D02*
X7179000Y-11045500D01*
X6333800Y-11045500D02*
X5740400Y-10452100D01*
X5676900Y-10452100D02*
X5626100Y-10502900D01*
%TO.N,+5V*%
X7658100Y-11303000D02*
X7658100Y-11201400D01*
X7924800Y-12992100D02*
X8153400Y-12763500D01*
X6432550Y-11906250D02*
X6540500Y-11798300D01*
X8204200Y-11455400D02*
X7810500Y-11455400D01*
X6432550Y-11988800D02*
X6432550Y-11906250D01*
X6680200Y-10426700D02*
X7023100Y-10426700D01*
X8153400Y-12763500D02*
X8153400Y-12192000D01*
X7023100Y-10426700D02*
X7061200Y-10464800D01*
X7810500Y-11455400D02*
X7658100Y-11303000D01*
X8255000Y-12192000D02*
X8267700Y-12204700D01*
X8153400Y-12192000D02*
X8255000Y-12192000D01*
%TO.N,Net-(D1-A)*%
X9139825Y-8373475D02*
X8837825Y-8675475D01*
X8837825Y-8675475D02*
X8837825Y-9955425D01*
X9625825Y-8373475D02*
X9139825Y-8373475D01*
X8837825Y-9955425D02*
X9232900Y-10350500D01*
X9721025Y-8468675D02*
X9625825Y-8373475D01*
%TO.N,COL2*%
X9902085Y-8664675D02*
X10301285Y-8265475D01*
X12513625Y-8265475D02*
X12915900Y-8667750D01*
X9090025Y-8664675D02*
X9902085Y-8664675D01*
X10301285Y-8265475D02*
X12513625Y-8265475D01*
%TO.N,COL1*%
X11013525Y-9412550D02*
X14094650Y-12493675D01*
X18122900Y-12496800D02*
X19272250Y-11347450D01*
X19272250Y-11347450D02*
X19272250Y-8639175D01*
X17955275Y-12606175D02*
X17991900Y-12642800D01*
X11126025Y-8518675D02*
X11013525Y-8631175D01*
X14094650Y-12493675D02*
X14207150Y-12606175D01*
X11013525Y-8631175D02*
X11013525Y-9412550D01*
X14207150Y-12606175D02*
X17955275Y-12606175D01*
%TO.N,Net-(U1-D+)*%
X5029200Y-7962900D02*
X5029200Y-7848600D01*
X5054600Y-7988300D02*
X5029200Y-7962900D01*
X6502400Y-10972800D02*
X6502400Y-9436100D01*
X6502400Y-9436100D02*
X5054600Y-7988300D01*
%TO.N,Net-(U1-D-)*%
X7696200Y-10426700D02*
X7696200Y-10885113D01*
X7696200Y-10885113D02*
X7354513Y-11226800D01*
X6832600Y-11226800D02*
X6819900Y-11226800D01*
X6819900Y-11226800D02*
X6731000Y-11137900D01*
X7354513Y-11226800D02*
X6832600Y-11226800D01*
%TO.N,unconnected-(U1-PB3-Pad11)*%
X7451400Y-10265100D02*
X8588700Y-10265100D01*
X8610600Y-10287000D02*
X8610600Y-10769600D01*
X8588700Y-10265100D02*
X8610600Y-10287000D01*
X8610600Y-10769600D02*
X9309100Y-11468100D01*
X7385104Y-10331396D02*
X7451400Y-10265100D01*
%TO.N,unconnected-(U1-PD4-Pad25)*%
X9013500Y-12132000D02*
X9321800Y-11823700D01*
X7061200Y-12331700D02*
X7260900Y-12132000D01*
X7260900Y-12132000D02*
X9013500Y-12132000D01*
%TO.N,unconnected-(U1-PD6-Pad26)*%
X9347200Y-11963400D02*
X9347200Y-11938000D01*
X8775700Y-13131800D02*
X9067800Y-12839700D01*
X7226300Y-13131800D02*
X8775700Y-13131800D01*
X9067800Y-12839700D02*
X9067800Y-12242800D01*
X5956300Y-10934700D02*
X5956300Y-11861800D01*
X5956300Y-11861800D02*
X7226300Y-13131800D01*
X9067800Y-12242800D02*
X9347200Y-11963400D01*
%TO.N,unconnected-(U1-PC7-Pad32)*%
X9194800Y-12255500D02*
X9410700Y-12039600D01*
X9220200Y-12928600D02*
X9220200Y-12865100D01*
X8864600Y-13258800D02*
X8877300Y-13271500D01*
X9220200Y-12280900D02*
X9194800Y-12255500D01*
X6045200Y-11087100D02*
X6045200Y-11595100D01*
X8877300Y-13271500D02*
X9220200Y-12928600D01*
X6045200Y-11595100D02*
X6070600Y-11620500D01*
X7213600Y-13258800D02*
X8864600Y-13258800D01*
X9220200Y-12865100D02*
X9220200Y-12280900D01*
X9410700Y-12039600D02*
X9410700Y-12014200D01*
%TO.N,unconnected-(U1-PF7-Pad36)*%
X6769100Y-11645900D02*
X9309100Y-11645900D01*
X9309100Y-11645900D02*
X9321800Y-11633200D01*
%TO.N,unconnected-(U1-PF6-Pad37)*%
X6858000Y-11531600D02*
X9283700Y-11531600D01*
X9296400Y-11531600D02*
X9309100Y-11544300D01*
%TO.N,unconnected-(U1-PF1-Pad40)*%
X6768592Y-11745849D02*
X9320149Y-11745849D01*
X9320149Y-11745849D02*
X9321800Y-11747500D01*
%TO.N,Net-(D5-A)*%
X21838600Y-9989500D02*
X21958300Y-10109200D01*
X21838600Y-8448125D02*
X21838600Y-9989500D01*
X21945600Y-10109200D02*
X21780500Y-10274300D01*
X21958300Y-10109200D02*
X21945600Y-10109200D01*
X21833650Y-8443175D02*
X21838600Y-8448125D01*
%TD*%
M02*
